<?xml version="1.0" encoding="UTF-8"?>
<svg id="Layer_2" data-name="Layer 2" xmlns="http://www.w3.org/2000/svg" viewBox="0 0 376.82 77.81">
  <defs>
    <style>
      .cls-1 {
        letter-spacing: -.01em;
      }

      .cls-2 {
        fill: none;
        stroke: #dd9f56;
        stroke-miterlimit: 10;
        stroke-width: 1.7px;
      }

      .cls-3 {
        fill: #1e2815;
        font-family: Allura-Regular, Allura;
        font-size: 21.18px;
      }

      .cls-4 {
        fill: #58662d;
        font-family: ACaslonPro-Semibold, 'Adobe Caslon Pro';
        font-size: 29.05px;
        font-weight: 600;
      }

      .cls-5 {
        fill: #dd9f56;
        fill-rule: evenodd;
        stroke-width: 0px;
      }

      .cls-6 {
        letter-spacing: -.1em;
      }
    </style>
  </defs>
  <g id="Layer_1-2" data-name="Layer 1">
    <g>
      <path class="cls-5" d="M67,70.98c.06-.42-.08-.65-.36-.72-.33,1.44-4.21,2.38-5.43.36-1.1-.02-.87,1.3-2.17,1.09.19-.29.38-.59.36-1.09-.66,1.41-2.47-.57-2.53,1.45-2.6-2.23-8.03-1.17-12.31,0,.19-.29.38-.59.36-1.09-13.94-.12-25.27,1.97-35.85-.72-2.14-2.17-3.54-5.46-4.35-7.97,4.58-1.38,10.03-1.61,14.85-1.81,16.74-.69,34.32.78,53.96,0,.14,5.82-2.95,8.4-6.52,10.5M61.56,56.13c-1.8,1.08-6.19.67-6.88-.72-1.15.17-1.51,1.14-2.9,1.09.09-.39.72-.24.72-.72-1.57,1.13-2.25-.83-3.26,1.09-3.28-1.86-10.46-.95-13.76,0,.09-.39.72-.25.72-.72-6.98-.77-24.07.87-31.51.72-2.14-.04-4.31-1.13-4.35,2.53h-.36v4.35c1.14,4.85,4.38,9.56,9.05,11.95,12.31.29,29.25.44,45.99.36,12.93-.06,23.22-3.03,21.37-18.11-5.95-1.54-9.31.04-14.85-1.81M73.51,40.2c1.75-1.47-.71-2.82-.72-4.71-.02-3.03,3.38-6.49,3.62-10.14.31-4.57-1.4-6.95-3.62-10.14-.22-2.03.38-3.94,0-5.07,2.4-2.1,3.57-6.63,2.9-9.78h-1.09V0h-1.45c-.54.43-1.02.91-1.45,1.45.15,5.67-4.92,8.97-2.9,15.21.93,2.88,3.64,4.56,3.62,7.6-.02,4.05-4.25,8.57-3.99,13.4.09,1.71.7,3.73,2.54,5.43-.09.39-.72.25-.72.72.83-.18,1.16,1.53,1.45,2.9-.31-.11-.54-.3-.65-.61-.07.57-.61,1.18-.43,1.7.61,1.75,2.46.54,2.17,2.17,2.7-.18,2.22-1.5,4.35-2.54v-2.9c-1.69-.96-.59-4.72-3.62-4.34M70.98,45.63c0,.19.03.34.07.48.02-.16,0-.32-.07-.48M61.93,45.63c0,.19.03.34.07.48.02-.16,0-.32-.07-.48M68.06,46.01c0,.12.02.24.02.35,0-.17-.01-.27-.02-.35M63.38,24.26c-.02,4.05-4.24,8.57-3.98,13.4.09,1.71.71,3.73,2.53,5.43-.09.39-.72.25-.72.72.83-.18,1.17,1.53,1.45,2.9-.31-.11-.54-.3-.65-.61-.07.57-.61,1.18-.44,1.7.61,1.75,2.46.54,2.17,2.17,1.58.18.77-1.12,2.17-.36-.13-1.26,1.72-1.18,2.17-2.17-.2.44-.08-2.05-.02-1.43-.16-2.18-1.17-5.75-3.6-5.81,1.12-2.1-1.06-4.13-.36-6.88.75-2.94,3.05-4.87,3.26-7.97.29-4.23-1.32-6.98-3.62-10.14-.22-2.03.38-3.94,0-5.07,2.17-2.05,4.79-8.19,1.81-10.14h-1.45c-.54.43-1.02.91-1.45,1.45.15,5.67-4.92,8.97-2.9,15.21.94,2.88,3.64,4.56,3.62,7.6M50.34,38.03c.14,1.76,1.15,3.67,2.53,5.43-1.59.29,1.1,1.21.73,3.26-.84.11-.4-1.04-1.09-1.09,1.09,1.43-.77,2.33,1.09,3.62.31-.55.54.1,1.45-.36-.02.46-.47.5-.36,1.09,1.64-.07.81-.91,2.54-.36-.3-1.8,1.13-1.1,1.81-2.54-.51-.09-.41-.79-.72-1.09,1.38.08-.37-5.76-2.9-6.16.44-.04.86-.11.72-.72-.61-.96-.84-2.3-1.45-3.26,1.76-5.04,4.64-10.43,3.26-15.57-2.18-2.99-3.76-5.6-3.26-10.14,2.17-2.05,4.79-8.19,1.81-10.14h-1.45c-.09.51-.79.41-1.09.72.08,5.57-5.37,9.58-3.26,16.3,8.05,5.69-.97,13.32-.36,21.01M10.14,43.46c3.05-.93,4.48-3.48,6.52-5.43.43.05.82.64,1.09,0-.71-1.63,3.46-2.8,2.9-4.35,1.44-.2,1.09-.2,2.53,0,.98-3.35,1.04-1.81,2.9-3.62-.79.75.04,1.17.36,1.81,5.77,1.26,11.88.66,13.04-4.35.6,0,.2,1.01.73,1.09,1.49-3.07,6.55-4.3,6.52-7.97-.02-2.16-1.48-3.22-3.62-2.9-1.37.21-2.11,2.47-3.62,3.98-.31.31-1.12.08-1.45.36-3.35,2.85-4.09,6.76-9.05,3.98,1.16-1.4,3.45-2.68,5.43-4.71,1.25-1.27,5.98-6.3,5.8-7.61-.81-5.74-6.07.65-7.24,1.81-2.99,2.96-6.39,6.83-8.69,7.24-2-9.97,8.75-9.11,7.97-16.66-6.34,2.18-15.87,12.07-9.78,20.64-5.78,7.02-13.59,12-18.47,19.92,2.42,1.8,5.47-1.01,6.16-3.26"/>
      <text class="cls-4" transform="translate(98.41 37.84)"><tspan x="0" y="0">HARMONY </tspan></text>
      <text class="cls-4" transform="translate(269.25 37.84)"><tspan x="0" y="0">H</tspan><tspan class="cls-6" x="24.92" y="0">A</tspan><tspan x="43.66" y="0">V</tspan><tspan class="cls-1" x="64.58" y="0">E</tspan><tspan x="84.1" y="0">N</tspan></text>
      <text class="cls-3" transform="translate(99.22 59.04)"><tspan x="0" y="0">Culinary Fusion Retreat</tspan></text>
      <rect class="cls-2" x="87.59" y="39.06" width="1.18" height="1.18"/>
      <line class="cls-2" x1="88.17" y1="77.81" x2="88.17" y2="46.44"/>
      <line class="cls-2" x1="88.17" y1="32.87" x2="88.17" y2="1.49"/>
    </g>
  </g>
</svg>