<?xml version="1.0" encoding="UTF-8"?>
<svg id="Layer_2" data-name="Layer 2" xmlns="http://www.w3.org/2000/svg" viewBox="0 0 118.25 134.75">
  <defs>
    <style>
      .cls-1 {
        fill: #ed9255;
        stroke-width: 0px;
      }
    </style>
  </defs>
  <g id="Layer_1-2" data-name="Layer 1">
    <g>
      <path class="cls-1" d="M25.7,42.54c-.11,0-.2.09-.2.2s.09.2.2.2.2-.09.2-.2-.09-.2-.2-.2Z"/>
      <path class="cls-1" d="M19.82,42.6c-.07,0-.13.06-.13.13s.06.13.13.13.13-.06.13-.13-.06-.13-.13-.13Z"/>
      <path class="cls-1" d="M23.88,36.99c-.08,0-.15.07-.15.15s.06.15.15.15.15-.07.15-.15-.07-.15-.15-.15Z"/>
      <path class="cls-1" d="M30.46,39.06c-.12,0-.21.1-.21.21s.1.21.21.21.21-.1.21-.21-.1-.21-.21-.21Z"/>
      <path class="cls-1" d="M30.46,45.88c-.17,0-.31.14-.31.31s.14.31.31.31.31-.14.31-.31-.14-.31-.31-.31Z"/>
      <path class="cls-1" d="M23.88,48.1c-.13,0-.23.1-.23.23s.1.23.23.23.23-.1.23-.23-.1-.23-.23-.23Z"/>
      <path class="cls-1" d="M13.94,42.67s-.07.03-.07.06.03.07.07.07.06-.03.06-.07-.03-.06-.06-.06Z"/>
      <path class="cls-1" d="M16.18,35.79s-.03.01-.03.03.01.03.03.03c.02,0,.03-.01.03-.03s-.01-.03-.03-.03Z"/>
      <path class="cls-1" d="M22.06,31.5s-.05.02-.05.05.02.05.05.05c.03,0,.05-.02.05-.05s-.02-.05-.05-.05Z"/>
      <path class="cls-1" d="M29.33,31.4c-.08,0-.15.07-.15.15s.06.15.15.15.15-.07.15-.15-.06-.15-.15-.15Z"/>
      <path class="cls-1" d="M35.21,35.54c-.15,0-.28.12-.28.28s.12.28.28.28.28-.12.28-.28-.12-.28-.28-.28Z"/>
      <path class="cls-1" d="M37.46,42.41c-.18,0-.33.15-.33.33s.15.33.33.33.33-.15.33-.33-.15-.33-.33-.33Z"/>
      <path class="cls-1" d="M35.21,49.25c-.22,0-.39.18-.39.39s.17.39.39.39.39-.18.39-.39-.17-.39-.39-.39Z"/>
      <path class="cls-1" d="M29.33,53.56c-.2,0-.36.16-.36.36s.16.36.36.36.36-.16.36-.36-.16-.36-.36-.36Z"/>
      <path class="cls-1" d="M22.06,53.72c-.11,0-.2.09-.2.2s.09.2.2.2.2-.09.2-.2-.09-.2-.2-.2Z"/>
      <path class="cls-1" d="M16.18,49.55c-.05,0-.1.04-.1.1s.04.1.1.1.1-.04.1-.1-.04-.1-.1-.1Z"/>
      <path class="cls-1" d="M8.06,42.72s-.02,0-.02.02c0,0,0,.02.02.02,0,0,.02,0,.02-.02,0,0,0-.02-.02-.02Z"/>
      <path class="cls-1" d="M20.25,25.94s-.02,0-.02.02c0,0,0,.02.02.02s.02,0,.02-.02c0,0,0-.02-.02-.02Z"/>
      <path class="cls-1" d="M27.54,25.14s-.05.02-.05.05.02.05.05.05c.03,0,.05-.02.05-.05s-.02-.05-.05-.05Z"/>
      <path class="cls-1" d="M34.52,27.36c-.05,0-.1.04-.1.1s.04.1.1.1.1-.04.1-.1-.04-.1-.1-.1Z"/>
      <path class="cls-1" d="M39.97,32.15c-.12,0-.21.09-.21.21s.1.21.21.21.21-.1.21-.21-.09-.21-.21-.21Z"/>
      <path class="cls-1" d="M42.95,38.72c-.19,0-.34.15-.34.34s.15.34.34.34.34-.15.34-.34-.15-.34-.34-.34Z"/>
      <path class="cls-1" d="M42.95,45.89c-.28,0-.5.23-.5.51s.22.51.5.51.51-.23.51-.51-.23-.51-.51-.51Z"/>
      <path class="cls-1" d="M39.97,52.63c-.26,0-.47.21-.47.47s.21.47.47.47.47-.21.47-.47-.21-.47-.47-.47Z"/>
      <path class="cls-1" d="M34.52,57.6c-.23,0-.41.18-.41.41s.18.41.41.41.41-.18.41-.41-.18-.41-.41-.41Z"/>
      <path class="cls-1" d="M27.54,59.97c-.17,0-.31.14-.31.31s.14.31.31.31.31-.14.31-.31-.14-.31-.31-.31Z"/>
      <path class="cls-1" d="M20.25,59.28c-.13,0-.23.1-.23.23s.1.23.23.23.23-.1.23-.23-.1-.23-.23-.23Z"/>
      <path class="cls-1" d="M13.89,55.71c-.07,0-.13.06-.13.13s.06.13.13.13.13-.06.13-.13-.06-.13-.13-.13Z"/>
      <path class="cls-1" d="M9.58,49.88s-.03.01-.03.03.01.03.03.03c.02,0,.03-.01.03-.03s-.01-.03-.03-.03Z"/>
      <path class="cls-1" d="M25.7,19.19s-.02,0-.02.02,0,.02.02.02c0,0,.02,0,.02-.02s0-.02-.02-.02Z"/>
      <path class="cls-1" d="M32.97,20.31s-.05.02-.05.05.02.05.05.05.05-.02.05-.05-.02-.05-.05-.05Z"/>
      <path class="cls-1" d="M39.52,23.56c-.08,0-.15.07-.15.15s.07.15.15.15.15-.07.15-.15-.06-.15-.15-.15Z"/>
      <path class="cls-1" d="M44.73,28.64c-.14,0-.26.12-.26.26s.12.26.26.26.26-.12.26-.26-.12-.26-.26-.26Z"/>
      <path class="cls-1" d="M48.07,35.06c-.22,0-.41.18-.41.41s.18.41.41.41.41-.18.41-.41-.18-.41-.41-.41Z"/>
      <path class="cls-1" d="M49.22,42.23c-.28,0-.51.23-.51.51s.23.51.51.51.51-.23.51-.51-.23-.51-.51-.51Z"/>
      <path class="cls-1" d="M48.07,49.4c-.33,0-.6.27-.6.6s.27.6.6.6.6-.27.6-.6-.27-.6-.6-.6Z"/>
      <path class="cls-1" d="M44.73,55.99c-.32,0-.57.26-.57.57s.26.57.57.57.57-.26.57-.57-.26-.57-.57-.57Z"/>
      <path class="cls-1" d="M39.52,61.24c-.29,0-.52.23-.52.52s.23.52.52.52.52-.23.52-.52-.23-.52-.52-.52Z"/>
      <path class="cls-1" d="M32.97,64.66c-.24,0-.44.2-.44.44s.2.44.44.44.44-.2.44-.44-.2-.44-.44-.44Z"/>
      <path class="cls-1" d="M25.7,65.91c-.19,0-.34.15-.34.34s.15.34.34.34.34-.15.34-.34-.15-.34-.34-.34Z"/>
      <path class="cls-1" d="M18.43,64.86c-.14,0-.25.11-.25.25s.11.24.25.24.24-.11.24-.24-.11-.25-.24-.25Z"/>
      <path class="cls-1" d="M11.87,61.62c-.08,0-.15.07-.15.15s.07.15.15.15.15-.07.15-.15-.06-.15-.15-.15Z"/>
      <circle class="cls-1" cx="6.67" cy="56.56" r=".05"/>
      <path class="cls-1" d="M31.21,13.83s-.02,0-.02.02c0,0,0,.02.02.02,0,0,.02,0,.02-.02,0,0,0-.02-.02-.02Z"/>
      <circle class="cls-1" cx="38.22" cy="16.13" r=".03"/>
      <path class="cls-1" d="M44.44,19.95c-.07,0-.13.06-.13.13s.06.13.13.13.13-.06.13-.13-.06-.13-.13-.13Z"/>
      <path class="cls-1" d="M49.48,25.21c-.13,0-.24.11-.24.24s.11.24.24.24.25-.11.25-.24-.11-.24-.25-.24Z"/>
      <path class="cls-1" d="M53.04,31.53c-.21,0-.38.17-.38.38s.17.38.38.38.37-.17.37-.38-.17-.38-.37-.38Z"/>
      <path class="cls-1" d="M54.87,38.57c-.26,0-.47.21-.47.47s.21.47.47.47.47-.21.47-.47-.21-.47-.47-.47Z"/>
      <path class="cls-1" d="M54.87,45.72c-.39,0-.7.31-.7.7s.31.7.7.7.7-.31.7-.7-.31-.7-.7-.7Z"/>
      <path class="cls-1" d="M53.04,52.72c-.46,0-.83.37-.83.83s.37.83.83.83.83-.37.83-.83-.37-.83-.83-.83Z"/>
      <path class="cls-1" d="M49.48,59.22c-.44,0-.8.36-.8.8s.36.8.8.8.8-.36.8-.8-.36-.8-.8-.8Z"/>
      <path class="cls-1" d="M44.44,64.67c-.4,0-.72.32-.72.72s.32.72.72.72.72-.32.72-.72-.32-.72-.72-.72Z"/>
      <path class="cls-1" d="M38.22,68.77c-.31,0-.57.26-.57.57s.26.57.57.57.57-.26.57-.57-.26-.57-.57-.57Z"/>
      <path class="cls-1" d="M31.21,71.14c-.26,0-.47.21-.47.47s.21.47.47.47.47-.21.47-.47-.21-.47-.47-.47Z"/>
      <path class="cls-1" d="M23.85,71.72c-.2,0-.36.16-.36.36s.16.36.36.36.36-.16.36-.36-.16-.36-.36-.36Z"/>
      <path class="cls-1" d="M16.61,70.52c-.1,0-.18.08-.18.18s.08.18.18.18.18-.08.18-.18-.08-.18-.18-.18Z"/>
      <path class="cls-1" d="M9.94,67.46c-.05,0-.1.04-.1.1s.04.1.1.1.1-.04.1-.1-.05-.1-.1-.1Z"/>
      <path class="cls-1" d="M4.26,62.84s-.02,0-.02.02,0,.02.02.02.02,0,.02-.02,0-.02-.02-.02Z"/>
      <path class="cls-1" d="M43.34,12.09s-.08.04-.08.08.04.08.08.08.08-.04.08-.08-.04-.08-.08-.08Z"/>
      <path class="cls-1" d="M49.31,16.41c-.05,0-.1.04-.1.1s.04.1.1.1.1-.04.1-.1-.04-.1-.1-.1Z"/>
      <path class="cls-1" d="M54.24,21.78c-.12,0-.21.1-.21.21s.1.21.21.21.21-.1.21-.21-.1-.21-.21-.21Z"/>
      <path class="cls-1" d="M57.93,28.1c-.15,0-.28.12-.28.28s.12.28.28.28.28-.12.28-.28-.12-.28-.28-.28Z"/>
      <path class="cls-1" d="M60.21,34.86c-.3,0-.54.24-.54.54s.24.54.54.54.54-.24.54-.54-.24-.54-.54-.54Z"/>
      <path class="cls-1" d="M60.98,42.06c-.37,0-.67.3-.67.67s.3.67.67.67.67-.3.67-.67-.3-.67-.67-.67Z"/>
      <path class="cls-1" d="M60.21,49.25c-.45,0-.82.36-.82.82s.37.82.82.82.81-.37.81-.82-.37-.82-.81-.82Z"/>
      <path class="cls-1" d="M57.93,56.25c-.46,0-.83.37-.83.83s.37.83.83.83.83-.37.83-.83-.37-.83-.83-.83Z"/>
      <path class="cls-1" d="M54.24,62.51c-.53,0-.96.43-.96.96s.43.96.96.96.96-.43.96-.96-.43-.96-.96-.96Z"/>
      <path class="cls-1" d="M49.31,68.07c-.49,0-.88.39-.88.88s.39.88.88.88.88-.39.88-.88-.39-.88-.88-.88Z"/>
      <path class="cls-1" d="M43.34,72.54c-.41,0-.75.34-.75.75s.34.75.75.75.75-.34.75-.75-.34-.75-.75-.75Z"/>
      <path class="cls-1" d="M36.6,75.67c-.34,0-.62.28-.62.62s.28.62.62.62.62-.28.62-.62-.28-.62-.62-.62Z"/>
      <path class="cls-1" d="M29.39,77.35c-.26,0-.47.21-.47.47s.21.47.47.47.47-.21.47-.47-.21-.47-.47-.47Z"/>
      <path class="cls-1" d="M22.01,77.56c-.14,0-.26.12-.26.26s.12.26.26.26.26-.12.26-.26-.12-.26-.26-.26Z"/>
      <path class="cls-1" d="M14.79,76.11c-.1,0-.18.08-.18.18s.08.18.18.18.18-.08.18-.18-.08-.18-.18-.18Z"/>
      <path class="cls-1" d="M8.06,73.19c-.05,0-.1.04-.1.1s.04.1.1.1.1-.04.1-.1-.04-.1-.1-.1Z"/>
      <path class="cls-1" d="M2.09,68.92s-.03.01-.03.03.01.03.03.03.03-.01.03-.03-.02-.03-.03-.03Z"/>
      <path class="cls-1" d="M48.37,8.33s-.05.02-.05.05.02.05.05.05.05-.02.05-.05-.02-.05-.05-.05Z"/>
      <path class="cls-1" d="M54.14,12.85c-.07,0-.13.06-.13.13s.06.13.13.13.13-.06.13-.13-.06-.13-.13-.13Z"/>
      <path class="cls-1" d="M59,18.31c-.12,0-.23.1-.23.23s.1.23.23.23.23-.1.23-.23-.1-.23-.23-.23Z"/>
      <path class="cls-1" d="M62.79,24.55c-.18,0-.33.15-.33.33s.15.33.33.33.33-.15.33-.33-.15-.33-.33-.33Z"/>
      <path class="cls-1" d="M65.38,31.31c-.26,0-.47.21-.47.47s.21.47.47.47.47-.21.47-.47-.21-.47-.47-.47Z"/>
      <path class="cls-1" d="M66.7,38.46c-.32,0-.59.26-.59.59s.26.59.59.59.59-.26.59-.59-.26-.59-.59-.59Z"/>
      <path class="cls-1" d="M66.7,45.51c-.5,0-.91.41-.91.91s.41.91.91.91.91-.41.91-.91-.41-.91-.91-.91Z"/>
      <path class="cls-1" d="M65.38,52.59c-.6,0-1.09.49-1.09,1.09s.49,1.09,1.09,1.09,1.09-.49,1.09-1.09-.49-1.09-1.09-1.09Z"/>
      <path class="cls-1" d="M62.79,59.47c-.62,0-1.12.5-1.12,1.13s.5,1.12,1.12,1.12,1.12-.5,1.12-1.12-.5-1.13-1.12-1.13Z"/>
      <path class="cls-1" d="M59,65.66c-.7,0-1.27.57-1.27,1.27s.57,1.27,1.27,1.27,1.27-.57,1.27-1.27-.57-1.27-1.27-1.27Z"/>
      <path class="cls-1" d="M54.14,71.33c-.64,0-1.16.52-1.16,1.16s.52,1.16,1.16,1.16,1.16-.52,1.16-1.16-.52-1.16-1.16-1.16Z"/>
      <path class="cls-1" d="M48.37,76.12c-.53,0-.96.43-.96.96s.43.96.96.96.96-.43.96-.96-.43-.96-.96-.96Z"/>
      <path class="cls-1" d="M41.88,79.8c-.43,0-.78.35-.78.78s.35.78.78.78.78-.35.78-.78-.35-.78-.78-.78Z"/>
      <path class="cls-1" d="M34.86,82.39c-.26,0-.47.21-.47.47s.21.47.47.47.47-.21.47-.47-.21-.47-.47-.47Z"/>
      <path class="cls-1" d="M27.54,83.5c-.2,0-.36.16-.36.36s.16.36.36.36.36-.16.36-.36-.16-.36-.36-.36Z"/>
      <path class="cls-1" d="M20.17,83.26c-.14,0-.26.12-.26.26s.12.26.26.26.26-.12.26-.26-.12-.26-.26-.26Z"/>
      <path class="cls-1" d="M12.98,81.7c-.1,0-.18.08-.18.18s.08.18.18.18.18-.08.18-.18-.08-.18-.18-.18Z"/>
      <path class="cls-1" d="M6.19,78.87c-.06,0-.12.05-.12.11s.05.11.12.11.11-.05.11-.11-.05-.11-.11-.11Z"/>
      <path class="cls-1" d="M.03,74.88s-.03.01-.03.03.01.03.03.03c.02,0,.03-.01.03-.03s-.01-.03-.03-.03Z"/>
      <path class="cls-1" d="M53.35,4.66s-.02,0-.02.02,0,.02.02.02c0,0,.02,0,.02-.02s0-.02-.02-.02Z"/>
      <path class="cls-1" d="M58.96,9.38s-.08.04-.08.08.04.08.08.08.08-.04.08-.08-.04-.08-.08-.08Z"/>
      <path class="cls-1" d="M63.76,14.92c-.09,0-.16.07-.16.16s.07.16.16.16.16-.07.16-.16-.07-.16-.16-.16Z"/>
      <path class="cls-1" d="M67.62,21.11c-.14,0-.26.12-.26.26s.12.26.26.26.26-.12.26-.26-.12-.26-.26-.26Z"/>
      <path class="cls-1" d="M70.44,27.82c-.21,0-.37.17-.37.38s.17.38.37.38.37-.17.37-.38-.17-.38-.37-.38Z"/>
      <path class="cls-1" d="M72.16,34.75c-.34,0-.62.28-.62.62s.28.62.62.62.62-.28.62-.62-.28-.62-.62-.62Z"/>
      <path class="cls-1" d="M72.74,41.95c-.43,0-.78.35-.78.78s.35.78.78.78.78-.35.78-.78-.35-.78-.78-.78Z"/>
      <path class="cls-1" d="M72.16,49.11c-.54,0-.98.44-.98.98s.44.98.98.98.98-.44.98-.98-.44-.98-.98-.98Z"/>
      <path class="cls-1" d="M70.44,56.08c-.66,0-1.19.53-1.19,1.19s.53,1.19,1.19,1.19,1.19-.53,1.19-1.19-.53-1.19-1.19-1.19Z"/>
      <path class="cls-1" d="M67.62,62.57c-.84,0-1.52.68-1.52,1.52s.68,1.52,1.52,1.52,1.52-.68,1.52-1.52-.68-1.52-1.52-1.52Z"/>
      <path class="cls-1" d="M63.76,68.98c-.78,0-1.4.63-1.4,1.4s.63,1.4,1.4,1.4,1.4-.63,1.4-1.4-.63-1.4-1.4-1.4Z"/>
      <path class="cls-1" d="M58.96,74.55c-.8,0-1.45.65-1.45,1.45s.65,1.45,1.45,1.45,1.45-.65,1.45-1.45-.65-1.45-1.45-1.45Z"/>
      <path class="cls-1" d="M53.35,79.6c-.66,0-1.19.53-1.19,1.19s.53,1.19,1.19,1.19,1.19-.53,1.19-1.19-.53-1.19-1.19-1.19Z"/>
      <path class="cls-1" d="M47.05,83.69c-.53,0-.96.43-.96.96s.43.96.96.96.96-.43.96-.96-.43-.96-.96-.96Z"/>
      <path class="cls-1" d="M40.24,86.89c-.33,0-.59.26-.59.59s.26.59.59.59.59-.26.59-.59-.26-.59-.59-.59Z"/>
      <path class="cls-1" d="M33.06,88.74c-.25,0-.46.2-.46.46s.21.46.46.46.46-.2.46-.46-.21-.46-.46-.46Z"/>
      <path class="cls-1" d="M25.7,89.43c-.19,0-.34.15-.34.34s.15.34.34.34.34-.15.34-.34-.15-.34-.34-.34Z"/>
      <path class="cls-1" d="M18.34,88.94c-.14,0-.26.12-.26.26s.12.26.26.26.26-.12.26-.26-.12-.26-.26-.26Z"/>
      <circle class="cls-1" cx="11.16" cy="87.47" r=".1"/>
      <path class="cls-1" d="M4.34,84.62s-.03.01-.03.03.02.03.03.03.03-.01.03-.03-.02-.03-.03-.03Z"/>
      <path class="cls-1" d="M58.28,1.01s-.02,0-.02.02c0,0,0,.02,0,.02.02,0,.03,0,.03-.02,0,0,0-.02-.02-.02Z"/>
      <path class="cls-1" d="M63.77,5.89s-.08.04-.08.08.04.08.08.08.08-.04.08-.08-.04-.08-.08-.08Z"/>
      <path class="cls-1" d="M68.52,11.44c-.1,0-.18.08-.18.18s.08.18.18.18.18-.08.18-.18-.08-.18-.18-.18Z"/>
      <path class="cls-1" d="M72.43,17.61c-.15,0-.28.12-.28.28s.12.28.28.28.28-.12.28-.28-.12-.28-.28-.28Z"/>
      <path class="cls-1" d="M75.43,24.26c-.21,0-.37.17-.37.38s.17.37.37.37.37-.17.37-.37-.17-.38-.37-.38Z"/>
      <path class="cls-1" d="M77.47,31.22c-.28,0-.51.23-.51.51s.23.51.51.51.51-.23.51-.51-.23-.51-.51-.51Z"/>
      <path class="cls-1" d="M78.49,38.39c-.36,0-.65.29-.65.65s.29.65.65.65.65-.29.65-.65-.29-.65-.65-.65Z"/>
      <path class="cls-1" d="M78.49,45.41c-.56,0-1.01.45-1.01,1.01s.45,1.01,1.01,1.01,1.01-.45,1.01-1.01-.45-1.01-1.01-1.01Z"/>
      <path class="cls-1" d="M77.47,52.5c-.68,0-1.24.55-1.24,1.24s.56,1.24,1.24,1.24,1.24-.55,1.24-1.24-.55-1.24-1.24-1.24Z"/>
      <path class="cls-1" d="M75.43,59.4c-.79,0-1.44.64-1.44,1.43s.64,1.44,1.44,1.44,1.44-.64,1.44-1.44-.64-1.43-1.44-1.43Z"/>
      <circle class="cls-1" cx="72.43" cy="67.58" r="1.73"/>
      <path class="cls-1" d="M68.52,72.14c-.94,0-1.7.76-1.7,1.7s.76,1.7,1.7,1.7,1.7-.76,1.7-1.7-.76-1.7-1.7-1.7Z"/>
      <path class="cls-1" d="M63.77,78.05c-.8,0-1.45.65-1.45,1.45s.65,1.45,1.45,1.45,1.45-.65,1.45-1.45-.65-1.45-1.45-1.45Z"/>
      <path class="cls-1" d="M58.28,83.25c-.66,0-1.19.53-1.19,1.19s.53,1.19,1.19,1.19,1.19-.53,1.19-1.19-.53-1.19-1.19-1.19Z"/>
      <path class="cls-1" d="M52.16,87.64c-.51,0-.93.42-.93.93s.42.93.93.93.93-.42.93-.93-.42-.93-.93-.93Z"/>
      <circle class="cls-1" cx="45.52" cy="91.8" r=".75"/>
      <path class="cls-1" d="M38.5,93.53c-.31,0-.55.25-.55.55s.25.55.55.55.55-.25.55-.55-.25-.55-.55-.55Z"/>
      <path class="cls-1" d="M31.23,94.94c-.23,0-.42.19-.42.42s.19.42.42.42.42-.19.42-.42-.19-.42-.42-.42Z"/>
      <path class="cls-1" d="M23.85,95.3c-.18,0-.33.15-.33.33s.14.33.33.33.33-.15.33-.33-.15-.33-.33-.33Z"/>
      <path class="cls-1" d="M16.51,94.69c-.09,0-.16.07-.16.16s.07.16.16.16.16-.07.16-.16-.07-.16-.16-.16Z"/>
      <path class="cls-1" d="M9.34,92.97c-.05,0-.1.04-.1.1s.04.1.1.1.1-.04.1-.1-.04-.1-.1-.1Z"/>
      <path class="cls-1" d="M2.5,90.27s-.03.01-.03.03.01.03.03.03c.02,0,.03-.01.03-.03s-.01-.03-.03-.03Z"/>
      <path class="cls-1" d="M68.57,2.44s-.03.01-.03.03.01.03.03.03c.02,0,.03-.01.03-.03s-.01-.03-.03-.03Z"/>
      <path class="cls-1" d="M73.27,8.05c-.06,0-.12.05-.12.11s.05.11.12.11.11-.05.11-.11-.05-.11-.11-.11Z"/>
      <path class="cls-1" d="M77.23,14.21c-.11,0-.2.09-.2.2s.09.2.2.2.2-.09.2-.2-.09-.2-.2-.2Z"/>
      <path class="cls-1" d="M80.37,20.81c-.15,0-.28.12-.28.28s.12.28.28.28.28-.12.28-.28-.12-.28-.28-.28Z"/>
      <path class="cls-1" d="M82.66,27.72c-.21,0-.39.18-.39.39s.18.39.39.39.39-.18.39-.39-.18-.39-.39-.39Z"/>
      <path class="cls-1" d="M84.04,34.73c-.35,0-.64.28-.64.64s.29.64.64.64.63-.29.63-.64-.29-.64-.63-.64Z"/>
      <path class="cls-1" d="M84.5,41.92c-.45,0-.82.36-.82.81s.37.82.82.82.81-.36.81-.82-.37-.81-.81-.81Z"/>
      <path class="cls-1" d="M84.04,49.09c-.56,0-1.01.45-1.01,1.01s.45,1.01,1.01,1.01,1.01-.45,1.01-1.01-.45-1.01-1.01-1.01Z"/>
      <path class="cls-1" d="M82.66,56.12c-.68,0-1.24.55-1.24,1.24s.55,1.24,1.24,1.24,1.24-.55,1.24-1.24-.55-1.24-1.24-1.24Z"/>
      <path class="cls-1" d="M80.37,62.54c-1.02,0-1.84.83-1.84,1.84s.83,1.84,1.84,1.84,1.84-.83,1.84-1.84-.82-1.84-1.84-1.84Z"/>
      <path class="cls-1" d="M77.23,68.84c-1.22,0-2.22.99-2.22,2.22s.99,2.22,2.22,2.22,2.22-.99,2.22-2.22-.99-2.22-2.22-2.22Z"/>
      <path class="cls-1" d="M73.27,75.13c-1.2,0-2.17.97-2.17,2.17s.97,2.17,2.17,2.17,2.17-.97,2.17-2.17-.97-2.17-2.17-2.17Z"/>
      <path class="cls-1" d="M68.57,81.24c-.96,0-1.75.78-1.75,1.74s.78,1.74,1.75,1.74,1.74-.78,1.74-1.74-.78-1.74-1.74-1.74Z"/>
      <path class="cls-1" d="M63.18,86.69c-.75,0-1.35.61-1.35,1.35s.61,1.35,1.35,1.35,1.35-.61,1.35-1.35-.61-1.35-1.35-1.35Z"/>
      <path class="cls-1" d="M57.21,91.27c-.61,0-1.11.5-1.11,1.11s.5,1.11,1.11,1.11,1.11-.5,1.11-1.11-.5-1.11-1.11-1.11Z"/>
      <path class="cls-1" d="M50.74,95.09c-.47,0-.85.38-.85.85s.38.85.85.85.85-.38.85-.85-.38-.85-.85-.85Z"/>
      <path class="cls-1" d="M43.87,97.98c-.38,0-.68.31-.68.68s.31.69.68.69.69-.31.69-.69-.31-.68-.69-.68Z"/>
      <path class="cls-1" d="M36.72,100.01c-.27,0-.49.22-.49.49s.22.49.49.49.49-.22.49-.49-.22-.49-.49-.49Z"/>
      <path class="cls-1" d="M29.39,101.03c-.22,0-.39.18-.39.39s.18.39.39.39.39-.18.39-.39-.18-.39-.39-.39Z"/>
      <path class="cls-1" d="M22.01,101.21c-.12,0-.21.1-.21.21s.1.21.21.21.21-.1.21-.21-.09-.21-.21-.21Z"/>
      <path class="cls-1" d="M14.68,100.37c-.07,0-.13.06-.13.13s.06.13.13.13.13-.06.13-.13-.06-.13-.13-.13Z"/>
      <path class="cls-1" d="M7.53,98.58s-.08.04-.08.08.04.08.08.08.08-.04.08-.08-.04-.08-.08-.08Z"/>
      <path class="cls-1" d="M.66,95.91s-.03.01-.03.03.01.03.03.03c.02,0,.03-.01.03-.03s-.01-.03-.03-.03Z"/>
      <path class="cls-1" d="M78.03,4.66s-.05.02-.05.05.02.05.05.05c.03,0,.05-.02.05-.05s-.02-.05-.05-.05Z"/>
      <circle class="cls-1" cx="82.02" cy="10.92" r=".2"/>
      <path class="cls-1" d="M85.28,17.27c-.15,0-.28.12-.28.28s.12.28.28.28.28-.12.28-.28-.12-.28-.28-.28Z"/>
      <path class="cls-1" d="M87.76,24.12c-.21,0-.39.18-.39.39s.18.39.39.39.39-.18.39-.39-.18-.39-.39-.39Z"/>
      <path class="cls-1" d="M89.44,31.21c-.27,0-.49.22-.49.49s.22.49.49.49.49-.22.49-.49-.22-.49-.49-.49Z"/>
      <path class="cls-1" d="M90.28,38.42c-.34,0-.62.28-.62.62s.28.62.62.62.62-.28.62-.62-.28-.62-.62-.62Z"/>
      <path class="cls-1" d="M90.28,45.45c-.54,0-.98.44-.98.98s.44.98.98.98.98-.44.98-.98-.44-.98-.98-.98Z"/>
      <path class="cls-1" d="M89.44,52.57c-.66,0-1.19.53-1.19,1.19s.53,1.19,1.19,1.19,1.19-.53,1.19-1.19-.53-1.19-1.19-1.19Z"/>
      <path class="cls-1" d="M87.76,59.44c-.84,0-1.52.68-1.52,1.52s.68,1.52,1.52,1.52,1.52-.68,1.52-1.52-.68-1.52-1.52-1.52Z"/>
      <path class="cls-1" d="M85.28,66.07c-1.02,0-1.84.82-1.84,1.84s.82,1.84,1.84,1.84,1.84-.83,1.84-1.84-.82-1.84-1.84-1.84Z"/>
      <circle class="cls-1" cx="82.02" cy="74.54" r="2.22"/>
      <path class="cls-1" d="M78.03,78.18c-1.42,0-2.57,1.15-2.57,2.58s1.15,2.58,2.57,2.58,2.58-1.15,2.58-2.58-1.15-2.58-2.58-2.58Z"/>
      <circle class="cls-1" cx="73.36" cy="86.47" r="2.1"/>
      <path class="cls-1" d="M68.06,90.02c-.88,0-1.6.72-1.6,1.6s.71,1.6,1.6,1.6,1.6-.72,1.6-1.6-.71-1.6-1.6-1.6Z"/>
      <path class="cls-1" d="M62.21,94.92c-.67,0-1.21.54-1.21,1.21s.54,1.21,1.21,1.21,1.21-.54,1.21-1.21-.54-1.21-1.21-1.21Z"/>
      <path class="cls-1" d="M55.88,99.05c-.5,0-.9.4-.9.9s.4.9.9.9.9-.4.9-.9-.4-.9-.9-.9Z"/>
      <circle class="cls-1" cx="49.17" cy="103.01" r=".75"/>
      <path class="cls-1" d="M42.14,104.76c-.3,0-.54.24-.54.54s.24.54.54.54.54-.24.54-.54-.24-.54-.54-.54Z"/>
      <path class="cls-1" d="M34.9,106.42c-.19,0-.34.15-.34.34s.15.34.34.34.34-.15.34-.34-.15-.34-.34-.34Z"/>
      <path class="cls-1" d="M27.54,107.13c-.14,0-.26.12-.26.26s.12.26.26.26.26-.12.26-.26-.12-.26-.26-.26Z"/>
      <path class="cls-1" d="M20.16,107c-.1,0-.18.08-.18.18s.08.18.18.18.18-.08.18-.18-.08-.18-.18-.18Z"/>
      <path class="cls-1" d="M12.85,106.02c-.06,0-.12.05-.12.11s.05.11.12.11.11-.05.11-.11-.05-.11-.11-.11Z"/>
      <path class="cls-1" d="M5.71,104.24s-.02,0-.02.02c0,0,0,.02.02.02,0,0,.02,0,.02-.02,0,0,0-.02-.02-.02Z"/>
      <path class="cls-1" d="M82.79,1.2s-.05.02-.05.05.02.05.05.05c.03,0,.05-.02.05-.05s-.02-.05-.05-.05Z"/>
      <path class="cls-1" d="M86.81,7.33c-.06,0-.11.05-.11.11s.05.11.11.11.12-.05.12-.11-.05-.11-.12-.11Z"/>
      <path class="cls-1" d="M90.16,13.83c-.11,0-.2.09-.2.2s.09.2.2.2.2-.09.2-.2-.09-.2-.2-.2Z"/>
      <path class="cls-1" d="M92.81,20.65c-.15,0-.28.12-.28.28s.12.28.28.28.28-.12.28-.28-.12-.28-.28-.28Z"/>
      <path class="cls-1" d="M94.72,27.7c-.2,0-.36.16-.36.36s.16.36.36.36.36-.16.36-.36-.16-.36-.36-.36Z"/>
      <path class="cls-1" d="M95.88,34.77c-.32,0-.59.26-.59.59s.26.59.59.59.59-.26.59-.59-.26-.59-.59-.59Z"/>
      <path class="cls-1" d="M96.27,42c-.41,0-.73.33-.73.73s.33.73.73.73.73-.33.73-.73-.33-.73-.73-.73Z"/>
      <path class="cls-1" d="M95.88,49.21c-.5,0-.9.4-.9.9s.4.9.9.9.9-.4.9-.9-.4-.9-.9-.9Z"/>
      <circle class="cls-1" cx="94.72" cy="57.4" r="1.08"/>
      <path class="cls-1" d="M92.81,62.81c-.95,0-1.73.77-1.73,1.73s.78,1.73,1.73,1.73,1.73-.77,1.73-1.73-.77-1.73-1.73-1.73Z"/>
      <path class="cls-1" d="M90.16,69.46c-1.09,0-1.97.88-1.97,1.97s.88,1.97,1.97,1.97,1.97-.88,1.97-1.97-.88-1.97-1.97-1.97Z"/>
      <path class="cls-1" d="M86.81,75.49c-1.39,0-2.53,1.13-2.53,2.53s1.13,2.53,2.53,2.53,2.53-1.13,2.53-2.53-1.13-2.53-2.53-2.53Z"/>
      <path class="cls-1" d="M82.79,81.85c-1.31,0-2.37,1.06-2.37,2.36s1.06,2.36,2.37,2.36,2.36-1.06,2.36-2.36-1.06-2.36-2.36-2.36Z"/>
      <path class="cls-1" d="M78.14,87.91c-1.13,0-2.04.91-2.04,2.04s.91,2.04,2.04,2.04,2.04-.91,2.04-2.04-.91-2.04-2.04-2.04Z"/>
      <path class="cls-1" d="M72.92,93.61c-.86,0-1.56.7-1.56,1.57s.7,1.57,1.56,1.57,1.57-.7,1.57-1.57-.7-1.57-1.57-1.57Z"/>
      <path class="cls-1" d="M67.18,98.63c-.66,0-1.19.53-1.19,1.19s.53,1.19,1.19,1.19,1.19-.53,1.19-1.19-.53-1.19-1.19-1.19Z"/>
      <path class="cls-1" d="M60.98,102.79c-.59,0-1.06.47-1.06,1.06s.47,1.06,1.06,1.06,1.06-.47,1.06-1.06-.47-1.06-1.06-1.06Z"/>
      <path class="cls-1" d="M54.4,106.43c-.42,0-.77.34-.77.77s.34.77.77.77.77-.34.77-.77-.34-.77-.77-.77Z"/>
      <path class="cls-1" d="M47.5,109.19c-.36,0-.65.29-.65.65s.29.65.65.65.65-.29.65-.65-.29-.65-.65-.65Z"/>
      <circle class="cls-1" cx="40.37" cy="111.76" r=".37"/>
      <path class="cls-1" d="M33.07,112.64c-.15,0-.28.12-.28.28s.12.28.28.28.28-.12.28-.28-.12-.28-.28-.28Z"/>
      <path class="cls-1" d="M25.7,113.09c-.12,0-.21.09-.21.21s.09.21.21.21.21-.1.21-.21-.1-.21-.21-.21Z"/>
      <path class="cls-1" d="M18.32,112.77c-.08,0-.15.07-.15.15s.06.15.15.15.15-.07.15-.15-.07-.15-.15-.15Z"/>
      <path class="cls-1" d="M11.03,111.72s-.03.02-.03.03.01.03.03.03c.02,0,.03-.01.03-.03s-.01-.03-.03-.03Z"/>
      <path class="cls-1" d="M91.59,3.93s-.05.02-.05.05.02.05.05.05.05-.02.05-.05-.02-.05-.05-.05Z"/>
      <path class="cls-1" d="M95.03,10.42c-.05,0-.1.04-.1.1s.04.1.1.1.1-.04.1-.1-.04-.1-.1-.1Z"/>
      <path class="cls-1" d="M97.81,17.1c-.14,0-.26.12-.26.26s.12.26.26.26.26-.12.26-.26-.12-.26-.26-.26Z"/>
      <path class="cls-1" d="M99.92,24.13c-.17,0-.31.14-.31.31s.14.31.31.31.31-.14.31-.31-.14-.31-.31-.31Z"/>
      <path class="cls-1" d="M101.34,31.26c-.23,0-.42.19-.42.42s.19.42.42.42.42-.19.42-.42-.19-.42-.42-.42Z"/>
      <path class="cls-1" d="M102.06,38.52c-.29,0-.52.23-.52.52s.23.52.52.52.52-.23.52-.52-.23-.52-.52-.52Z"/>
      <path class="cls-1" d="M102.06,45.63c-.44,0-.8.36-.8.8s.36.8.8.8.8-.36.8-.8-.36-.8-.8-.8Z"/>
      <path class="cls-1" d="M101.34,52.83c-.52,0-.95.42-.95.95s.42.95.95.95.95-.42.95-.95-.42-.95-.95-.95Z"/>
      <path class="cls-1" d="M99.92,59.92c-.61,0-1.11.5-1.11,1.11s.5,1.11,1.11,1.11,1.11-.5,1.11-1.11-.5-1.11-1.11-1.11Z"/>
      <path class="cls-1" d="M97.81,66.61c-.83,0-1.5.67-1.5,1.5s.67,1.5,1.5,1.5,1.5-.67,1.5-1.5-.67-1.5-1.5-1.5Z"/>
      <path class="cls-1" d="M95.03,73.27c-.93,0-1.68.75-1.68,1.68s.75,1.68,1.68,1.68,1.68-.75,1.68-1.68-.75-1.68-1.68-1.68Z"/>
      <circle class="cls-1" cx="91.59" cy="81.49" r="2.05" transform="translate(-11.84 15.67) rotate(-9.19)"/>
      <path class="cls-1" d="M87.54,85.64c-1.12,0-2.02.91-2.02,2.02s.9,2.02,2.02,2.02,2.02-.9,2.02-2.02-.91-2.02-2.02-2.02Z"/>
      <path class="cls-1" d="M82.92,91.75c-.93,0-1.68.75-1.68,1.68s.75,1.68,1.68,1.68,1.68-.75,1.68-1.68-.75-1.68-1.68-1.68Z"/>
      <path class="cls-1" d="M77.76,97.03c-.93,0-1.68.75-1.68,1.68s.75,1.68,1.68,1.68,1.68-.75,1.68-1.68-.75-1.68-1.68-1.68Z"/>
      <path class="cls-1" d="M72.11,102.17c-.72,0-1.3.58-1.3,1.3s.58,1.3,1.3,1.3,1.3-.58,1.3-1.3-.58-1.3-1.3-1.3Z"/>
      <path class="cls-1" d="M66.04,106.69c-.54,0-.98.44-.98.98s.44.98.98.98.98-.44.98-.98-.44-.98-.98-.98Z"/>
      <path class="cls-1" d="M59.58,110.53c-.4,0-.73.33-.73.73s.33.73.73.73.73-.33.73-.73-.33-.73-.73-.73Z"/>
      <path class="cls-1" d="M52.81,113.58c-.35,0-.64.28-.64.64s.29.64.64.64.64-.28.64-.64-.29-.64-.64-.64Z"/>
      <circle class="cls-1" cx="45.78" cy="116.5" r=".46"/>
      <path class="cls-1" d="M38.57,117.78c-.17,0-.31.14-.31.31s.14.31.31.31.31-.14.31-.31-.14-.31-.31-.31Z"/>
      <path class="cls-1" d="M31.23,118.75c-.12,0-.23.1-.23.23s.1.23.23.23.23-.1.23-.23-.1-.23-.23-.23Z"/>
      <path class="cls-1" d="M23.85,118.99c-.09,0-.16.07-.16.16s.07.16.16.16.16-.07.16-.16-.07-.16-.16-.16Z"/>
      <path class="cls-1" d="M16.48,118.57s-.05.02-.05.05.02.05.05.05.05-.02.05-.05-.02-.05-.05-.05Z"/>
      <path class="cls-1" d="M96.37.47s-.03.01-.03.03.02.03.03.03.03-.01.03-.03-.02-.03-.03-.03Z"/>
      <path class="cls-1" d="M99.87,6.93s-.08.04-.08.08.04.08.08.08.08-.04.08-.08-.04-.08-.08-.08Z"/>
      <path class="cls-1" d="M102.78,13.64c-.09,0-.16.07-.16.16s.07.16.16.16.16-.07.16-.16-.07-.16-.16-.16Z"/>
      <path class="cls-1" d="M105.06,20.6c-.12,0-.23.1-.23.23s.1.23.23.23.23-.1.23-.23-.1-.23-.23-.23Z"/>
      <path class="cls-1" d="M106.7,27.75c-.15,0-.28.12-.28.28s.12.28.28.28.28-.12.28-.28-.12-.28-.28-.28Z"/>
      <path class="cls-1" d="M107.7,34.88c-.26,0-.47.21-.47.47s.21.47.47.47.47-.21.47-.47-.21-.47-.47-.47Z"/>
      <path class="cls-1" d="M108.03,42.16c-.31,0-.57.26-.57.57s.26.57.57.57.57-.26.57-.57-.26-.57-.57-.57Z"/>
      <path class="cls-1" d="M107.7,49.43c-.38,0-.69.31-.69.69s.31.68.69.68.68-.31.68-.68-.31-.69-.68-.69Z"/>
      <path class="cls-1" d="M106.7,56.6c-.46,0-.83.37-.83.83s.37.83.83.83.83-.37.83-.83-.37-.83-.83-.83Z"/>
      <path class="cls-1" d="M105.06,63.38c-.69,0-1.26.56-1.26,1.26s.56,1.26,1.26,1.26,1.26-.56,1.26-1.26-.56-1.26-1.26-1.26Z"/>
      <path class="cls-1" d="M102.78,70.27c-.77,0-1.39.62-1.39,1.39s.62,1.39,1.39,1.39,1.38-.62,1.38-1.39-.62-1.39-1.38-1.39Z"/>
      <path class="cls-1" d="M99.87,77.02c-.79,0-1.44.64-1.44,1.43s.64,1.44,1.44,1.44,1.44-.64,1.44-1.44-.64-1.43-1.44-1.43Z"/>
      <path class="cls-1" d="M96.37,83.21c-.96,0-1.75.78-1.75,1.75s.78,1.74,1.75,1.74,1.74-.78,1.74-1.74-.78-1.75-1.74-1.75Z"/>
      <path class="cls-1" d="M92.3,89.3c-1.01,0-1.83.82-1.83,1.83s.82,1.83,1.83,1.83,1.83-.82,1.83-1.83-.82-1.83-1.83-1.83Z"/>
      <circle class="cls-1" cx="87.7" cy="96.9" r="1.68"/>
      <path class="cls-1" d="M82.59,100.87c-.76,0-1.37.61-1.37,1.37s.61,1.37,1.37,1.37,1.37-.61,1.37-1.37-.61-1.37-1.37-1.37Z"/>
      <path class="cls-1" d="M77.03,105.97c-.62,0-1.12.5-1.12,1.13s.5,1.12,1.12,1.12,1.12-.5,1.12-1.12-.5-1.13-1.12-1.13Z"/>
      <path class="cls-1" d="M71.05,110.58c-.48,0-.87.39-.87.86s.39.86.87.86.86-.39.86-.86-.39-.86-.86-.86Z"/>
      <path class="cls-1" d="M64.71,114.41c-.45,0-.82.36-.82.82s.37.82.82.82.81-.37.81-.82-.37-.82-.81-.82Z"/>
      <path class="cls-1" d="M58.05,117.91c-.29,0-.52.23-.52.52s.23.52.52.52.52-.23.52-.52-.23-.52-.52-.52Z"/>
      <path class="cls-1" d="M51.14,120.57c-.25,0-.46.2-.46.46s.21.46.46.46.46-.2.46-.46-.2-.46-.46-.46Z"/>
      <path class="cls-1" d="M44.02,122.69c-.17,0-.31.14-.31.31s.14.31.31.31.31-.14.31-.31-.14-.31-.31-.31Z"/>
      <path class="cls-1" d="M36.75,124.09c-.12,0-.23.1-.23.23s.1.23.23.23.23-.1.23-.23-.1-.23-.23-.23Z"/>
      <circle class="cls-1" cx="29.39" cy="124.98" r=".18"/>
      <path class="cls-1" d="M22,124.91s-.06.03-.06.07.03.07.06.07c.04,0,.06-.03.06-.07s-.03-.07-.06-.07Z"/>
      <path class="cls-1" d="M14.65,124.3s-.02,0-.02.02c0,0,0,.02.02.02s.02,0,.02-.02c0,0,0-.02-.02-.02Z"/>
      <path class="cls-1" d="M104.71,3.48s-.03.01-.03.03.01.03.03.03.03-.01.03-.03-.02-.03-.03-.03Z"/>
      <path class="cls-1" d="M107.71,10.19s-.07.03-.07.07.03.07.07.07.06-.03.06-.07-.03-.07-.06-.07Z"/>
      <circle class="cls-1" cx="110.14" cy="17.24" r=".2"/>
      <path class="cls-1" d="M111.98,24.12c-.15,0-.28.12-.28.28s.12.28.28.28.28-.12.28-.28-.12-.28-.28-.28Z"/>
      <path class="cls-1" d="M113.21,31.3c-.21,0-.37.17-.37.38s.17.38.37.38.37-.17.37-.38-.17-.38-.37-.38Z"/>
      <path class="cls-1" d="M113.83,38.57c-.26,0-.47.21-.47.47s.21.47.47.47.47-.21.47-.47-.21-.47-.47-.47Z"/>
      <path class="cls-1" d="M113.83,45.74c-.38,0-.69.31-.69.69s.31.68.69.68.68-.31.68-.68-.31-.69-.68-.69Z"/>
      <path class="cls-1" d="M113.21,52.96c-.46,0-.83.37-.83.83s.37.83.83.83.83-.37.83-.83-.37-.83-.83-.83Z"/>
      <path class="cls-1" d="M111.98,60.13c-.52,0-.95.42-.95.95s.42.95.95.95.95-.42.95-.95-.42-.95-.95-.95Z"/>
      <path class="cls-1" d="M110.14,67.17c-.59,0-1.06.47-1.06,1.06s.47,1.06,1.06,1.06,1.06-.47,1.06-1.06-.47-1.06-1.06-1.06Z"/>
      <path class="cls-1" d="M107.71,74.06c-.63,0-1.14.51-1.14,1.14s.51,1.14,1.14,1.14,1.14-.51,1.14-1.14-.51-1.14-1.14-1.14Z"/>
      <path class="cls-1" d="M104.71,80.53c-.78,0-1.42.64-1.42,1.42s.63,1.42,1.42,1.42,1.42-.64,1.42-1.42-.63-1.42-1.42-1.42Z"/>
      <path class="cls-1" d="M101.15,87.11c-.73,0-1.32.59-1.32,1.32s.59,1.32,1.32,1.32,1.32-.59,1.32-1.32-.59-1.32-1.32-1.32Z"/>
      <path class="cls-1" d="M97.06,93.19c-.77,0-1.39.62-1.39,1.39s.62,1.39,1.39,1.39,1.39-.62,1.39-1.39-.62-1.39-1.39-1.39Z"/>
      <path class="cls-1" d="M92.47,99.08c-.71,0-1.29.58-1.29,1.29s.58,1.29,1.29,1.29,1.29-.58,1.29-1.29-.58-1.29-1.29-1.29Z"/>
      <path class="cls-1" d="M87.41,104.63c-.62,0-1.12.5-1.12,1.13s.5,1.12,1.12,1.12,1.12-.5,1.12-1.12-.5-1.13-1.12-1.13Z"/>
      <path class="cls-1" d="M81.92,109.57c-.62,0-1.12.5-1.12,1.12s.5,1.13,1.12,1.13,1.12-.5,1.12-1.13-.5-1.12-1.12-1.12Z"/>
      <path class="cls-1" d="M76.04,114.3c-.48,0-.86.39-.86.86s.39.86.86.86.87-.39.87-.86-.39-.86-.87-.86Z"/>
      <path class="cls-1" d="M69.8,118.46c-.37,0-.67.3-.67.67s.3.67.67.67.67-.3.67-.67-.3-.67-.67-.67Z"/>
      <path class="cls-1" d="M63.26,121.96c-.32,0-.59.26-.59.59s.26.59.59.59.59-.26.59-.59-.26-.59-.59-.59Z"/>
      <path class="cls-1" d="M56.45,124.99c-.23,0-.42.19-.42.42s.19.42.42.42.42-.19.42-.42-.19-.42-.42-.42Z"/>
      <path class="cls-1" d="M49.42,127.33c-.2,0-.36.16-.36.36s.16.36.36.36.36-.16.36-.36-.16-.36-.36-.36Z"/>
      <path class="cls-1" d="M42.23,129.07c-.17,0-.31.14-.31.31s.14.31.31.31.31-.14.31-.31-.14-.31-.31-.31Z"/>
      <path class="cls-1" d="M34.92,130.28c-.1,0-.18.08-.18.18s.08.18.18.18.18-.08.18-.18-.08-.18-.18-.18Z"/>
      <path class="cls-1" d="M27.54,130.79c-.07,0-.13.06-.13.13s.06.13.13.13.13-.06.13-.13-.06-.13-.13-.13Z"/>
      <path class="cls-1" d="M20.16,130.7s-.06.03-.06.07.03.06.06.06c.04,0,.07-.03.07-.06s-.03-.07-.07-.07Z"/>
      <path class="cls-1" d="M12.81,129.98s-.02,0-.02.02,0,.02.02.02c0,0,.02,0,.02-.02s0-.02-.02-.02Z"/>
      <path class="cls-1" d="M109.53,0s-.02,0-.02.02c0,0,0,.02,0,.02.02,0,.03,0,.03-.02,0,0,0-.02-.02-.02Z"/>
      <path class="cls-1" d="M112.62,6.66s-.06.03-.06.07.03.06.06.06c.04,0,.07-.03.07-.06s-.03-.07-.07-.07Z"/>
      <path class="cls-1" d="M115.18,13.53c-.07,0-.13.06-.13.13s.06.13.13.13.13-.06.13-.13-.06-.13-.13-.13Z"/>
      <path class="cls-1" d="M117.19,20.57c-.11,0-.2.09-.2.2s.09.2.2.2.2-.09.2-.2-.09-.2-.2-.2Z"/>
      <path class="cls-1" d="M117.19,63.64c-.59,0-1.06.47-1.06,1.06s.47,1.06,1.06,1.06,1.06-.47,1.06-1.06-.47-1.06-1.06-1.06Z"/>
      <path class="cls-1" d="M115.18,70.67c-.63,0-1.14.51-1.14,1.14s.51,1.14,1.14,1.14,1.14-.51,1.14-1.14-.51-1.14-1.14-1.14Z"/>
      <path class="cls-1" d="M112.62,77.55c-.66,0-1.19.53-1.19,1.19s.53,1.19,1.19,1.19,1.19-.53,1.19-1.19-.53-1.19-1.19-1.19Z"/>
      <path class="cls-1" d="M109.53,84.27c-.65,0-1.17.53-1.17,1.17s.53,1.17,1.17,1.17,1.18-.53,1.18-1.17-.53-1.17-1.18-1.17Z"/>
      <path class="cls-1" d="M105.92,90.8c-.6,0-1.09.49-1.09,1.09s.49,1.09,1.09,1.09,1.09-.49,1.09-1.09-.49-1.09-1.09-1.09Z"/>
      <path class="cls-1" d="M101.82,96.85c-.66,0-1.19.53-1.19,1.19s.53,1.19,1.19,1.19,1.19-.53,1.19-1.19-.53-1.19-1.19-1.19Z"/>
      <path class="cls-1" d="M97.24,102.65c-.66,0-1.19.53-1.19,1.19s.53,1.19,1.19,1.19,1.19-.53,1.19-1.19-.53-1.19-1.19-1.19Z"/>
      <path class="cls-1" d="M92.23,108.2c-.58,0-1.06.47-1.06,1.06s.47,1.06,1.06,1.06,1.06-.47,1.06-1.06-.47-1.06-1.06-1.06Z"/>
      <path class="cls-1" d="M86.8,113.37c-.51,0-.91.41-.91.91s.41.91.91.91.91-.41.91-.91-.41-.91-.91-.91Z"/>
      <path class="cls-1" d="M81,118.13c-.4,0-.72.32-.72.72s.32.72.72.72.72-.32.72-.72-.32-.72-.72-.72Z"/>
      <path class="cls-1" d="M74.86,122.4c-.31,0-.55.25-.55.55s.25.55.55.55.55-.25.55-.55-.25-.55-.55-.55Z"/>
      <path class="cls-1" d="M68.41,126.04c-.29,0-.52.23-.52.52s.23.52.52.52.52-.23.52-.52-.23-.52-.52-.52Z"/>
      <path class="cls-1" d="M61.71,129.19c-.26,0-.47.21-.47.47s.21.47.47.47.47-.21.47-.47-.21-.47-.47-.47Z"/>
      <path class="cls-1" d="M54.77,131.79c-.23,0-.42.19-.42.42s.19.42.42.42.42-.19.42-.42-.19-.42-.42-.42Z"/>
      <path class="cls-1" d="M47.66,133.86c-.2,0-.36.16-.36.36s.16.36.36.36.36-.16.36-.36-.16-.36-.36-.36Z"/>
      <path class="cls-1" d="M114.35,87.85c-.6,0-1.09.49-1.09,1.09s.49,1.09,1.09,1.09,1.09-.49,1.09-1.09-.49-1.09-1.09-1.09Z"/>
      <path class="cls-1" d="M110.7,94.37c-.55,0-1,.45-1,.99s.45.99,1,.99.99-.45.99-.99-.45-.99-.99-.99Z"/>
      <path class="cls-1" d="M106.58,100.61c-.49,0-.88.39-.88.88s.39.88.88.88.88-.39.88-.88-.39-.88-.88-.88Z"/>
      <path class="cls-1" d="M102.02,106.44c-.48,0-.87.39-.87.86s.39.86.87.86.86-.39.86-.86-.39-.86-.86-.86Z"/>
      <path class="cls-1" d="M97.04,111.95c-.45,0-.81.37-.81.82s.37.82.81.82.82-.37.82-.82-.37-.82-.82-.82Z"/>
      <path class="cls-1" d="M91.67,117.16c-.38,0-.68.31-.68.68s.31.69.68.69.69-.31.69-.69-.31-.68-.69-.68Z"/>
      <path class="cls-1" d="M85.94,121.79c-.4,0-.72.32-.72.72s.32.72.72.72.72-.32.72-.72-.32-.72-.72-.72Z"/>
      <path class="cls-1" d="M79.89,126.17c-.31,0-.57.26-.57.57s.26.57.57.57.57-.26.57-.57-.26-.57-.57-.57Z"/>
      <path class="cls-1" d="M73.54,129.96c-.31,0-.55.25-.55.55s.25.55.55.55.55-.25.55-.55-.25-.55-.55-.55Z"/>
      <path class="cls-1" d="M66.92,133.29c-.29,0-.52.23-.52.52s.23.52.52.52.52-.23.52-.52-.23-.52-.52-.52Z"/>
      <path class="cls-1" d="M115.46,97.83c-.55,0-1,.45-1,.99s.45.99,1,.99.99-.45.99-.99-.45-.99-.99-.99Z"/>
      <path class="cls-1" d="M111.33,104.07c-.49,0-.88.39-.88.88s.39.88.88.88.88-.39.88-.88-.39-.88-.88-.88Z"/>
      <path class="cls-1" d="M106.78,110.02c-.41,0-.75.34-.75.75s.33.75.75.75.75-.34.75-.75-.34-.75-.75-.75Z"/>
      <path class="cls-1" d="M101.84,115.55c-.4,0-.72.32-.72.72s.32.72.72.72.72-.32.72-.72-.32-.72-.72-.72Z"/>
      <path class="cls-1" d="M96.53,120.74c-.36,0-.65.29-.65.65s.29.65.65.65.65-.29.65-.65-.29-.65-.65-.65Z"/>
      <path class="cls-1" d="M90.87,125.59c-.3,0-.55.25-.55.55s.25.55.55.55.55-.25.55-.55-.25-.55-.55-.55Z"/>
      <circle class="cls-1" cx="84.89" cy="130.49" r=".57"/>
      <circle class="cls-1" cx="116.09" cy="108.41" r=".75"/>
      <path class="cls-1" d="M111.55,113.6c-.35,0-.64.29-.64.64s.29.64.64.64.64-.28.64-.64-.29-.64-.64-.64Z"/>
      <path class="cls-1" d="M106.64,119.23c-.29,0-.52.23-.52.52s.23.52.52.52.52-.23.52-.52-.23-.52-.52-.52Z"/>
      <path class="cls-1" d="M101.37,124.46c-.26,0-.47.21-.47.47s.21.47.47.47.47-.21.47-.47-.21-.47-.47-.47Z"/>
      <path class="cls-1" d="M95.77,129.25c-.28,0-.51.23-.51.51s.23.51.51.51.51-.23.51-.51-.23-.51-.51-.51Z"/>
      <path class="cls-1" d="M89.87,133.64c-.31,0-.55.25-.55.55s.25.55.55.55.55-.25.55-.55-.25-.55-.55-.55Z"/>
      <path class="cls-1" d="M116.32,117.18c-.29,0-.52.23-.52.52s.23.52.52.52.52-.23.52-.52-.23-.52-.52-.52Z"/>
      <path class="cls-1" d="M111.43,122.82c-.23,0-.42.19-.42.42s.19.42.42.42.42-.19.42-.42-.19-.42-.42-.42Z"/>
      <path class="cls-1" d="M106.21,128.04c-.23,0-.42.19-.42.42s.19.42.42.42.42-.19.42-.42-.19-.42-.42-.42Z"/>
      <path class="cls-1" d="M100.67,132.88c-.26,0-.47.21-.47.47s.21.47.47.47.47-.21.47-.47-.21-.47-.47-.47Z"/>
      <path class="cls-1" d="M116.22,126.31c-.23,0-.42.19-.42.42s.19.42.42.42.42-.19.42-.42-.19-.42-.42-.42Z"/>
      <path class="cls-1" d="M111.04,131.57c-.23,0-.42.19-.42.42s.19.42.42.42.42-.19.42-.42-.19-.42-.42-.42Z"/>
    </g>
  </g>
</svg>