<?xml version="1.0" encoding="UTF-8"?>
<svg id="Layer_2" data-name="Layer 2" xmlns="http://www.w3.org/2000/svg" viewBox="0 0 206.83 235.69">
  <defs>
    <style>
      .cls-1 {
        fill: #fed4aa;
        stroke-width: 0px;
      }
    </style>
  </defs>
  <g id="Layer_1-2" data-name="Layer 1">
    <g>
      <path class="cls-1" d="M161.88,161.29c.19,0,.34-.15.34-.34s-.15-.34-.34-.34-.34.15-.34.34.15.34.34.34Z"/>
      <path class="cls-1" d="M172.16,161.18c.13,0,.23-.1.23-.23s-.1-.23-.23-.23-.23.1-.23.23.1.23.23.23Z"/>
      <path class="cls-1" d="M165.06,170.99c.14,0,.26-.12.26-.26s-.12-.26-.26-.26-.26.12-.26.26.12.26.26.26Z"/>
      <path class="cls-1" d="M153.56,167.37c.21,0,.37-.17.37-.37s-.17-.37-.37-.37-.37.17-.37.37.17.37.37.37Z"/>
      <path class="cls-1" d="M153.56,155.45c.3,0,.54-.24.54-.54s-.24-.54-.54-.54-.54.24-.54.54.24.54.54.54Z"/>
      <path class="cls-1" d="M165.06,151.57c.22,0,.4-.18.4-.4s-.18-.4-.4-.4-.4.18-.4.4.18.4.4.4Z"/>
      <path class="cls-1" d="M182.45,161.07c.06,0,.12-.05.12-.11s-.05-.11-.12-.11-.11.05-.11.11.05.11.11.11Z"/>
      <path class="cls-1" d="M178.52,173.1s.06-.03.06-.06-.03-.06-.06-.06-.06.03-.06.06.03.06.06.06Z"/>
      <path class="cls-1" d="M168.23,180.6s.09-.04.09-.09-.04-.09-.09-.09-.08.04-.08.09.04.09.08.09Z"/>
      <path class="cls-1" d="M155.52,180.77c.14,0,.26-.11.26-.26s-.11-.26-.26-.26-.26.11-.26.26.11.26.26.26Z"/>
      <path class="cls-1" d="M145.24,173.53c.27,0,.48-.22.48-.48s-.22-.48-.48-.48-.49.22-.49.48.22.48.49.48Z"/>
      <circle class="cls-1" cx="141.31" cy="160.95" r=".57"/>
      <path class="cls-1" d="M145.24,149.54c.38,0,.68-.31.68-.68s-.31-.68-.68-.68-.69.31-.69.68.31.68.69.68Z"/>
      <path class="cls-1" d="M155.52,142.02c.35,0,.63-.28.63-.63s-.28-.63-.63-.63-.63.28-.63.63.28.63.63.63Z"/>
      <path class="cls-1" d="M168.23,141.73c.19,0,.34-.15.34-.34s-.15-.34-.34-.34-.34.15-.34.34.15.34.34.34Z"/>
      <path class="cls-1" d="M178.52,149.03c.09,0,.17-.08.17-.17s-.08-.17-.17-.17-.17.08-.17.17.08.17.17.17Z"/>
      <path class="cls-1" d="M192.74,160.98s.03-.01.03-.03-.01-.03-.03-.03-.03.01-.03.03.01.03.03.03Z"/>
      <path class="cls-1" d="M171.41,190.33s.03-.01.03-.03-.01-.03-.03-.03-.03.01-.03.03.01.03.03.03Z"/>
      <path class="cls-1" d="M158.65,191.73s.09-.04.09-.09-.04-.09-.09-.09-.09.04-.09.09.04.09.09.09Z"/>
      <path class="cls-1" d="M146.45,187.85c.1,0,.17-.08.17-.17s-.08-.17-.17-.17-.17.08-.17.17.08.17.17.17Z"/>
      <path class="cls-1" d="M136.91,179.46c.21,0,.37-.17.37-.37s-.17-.37-.37-.37-.37.17-.37.37.17.37.37.37Z"/>
      <circle class="cls-1" cx="131.7" cy="167.37" r=".6"/>
      <path class="cls-1" d="M131.7,155.42c.49,0,.88-.4.88-.88s-.4-.88-.88-.88-.88.4-.88.88.4.88.88.88Z"/>
      <path class="cls-1" d="M136.91,143.64c.46,0,.83-.37.83-.83s-.37-.83-.83-.83-.83.37-.83.83.37.83.83.83Z"/>
      <circle class="cls-1" cx="146.45" cy="134.23" r=".71"/>
      <path class="cls-1" d="M158.65,130.81c.3,0,.54-.24.54-.54s-.24-.54-.54-.54-.54.24-.54.54.24.54.54.54Z"/>
      <path class="cls-1" d="M171.41,132c.22,0,.4-.18.4-.4s-.18-.4-.4-.4-.4.18-.4.4.18.4.4.4Z"/>
      <path class="cls-1" d="M182.53,138.25c.13,0,.23-.1.23-.23s-.1-.23-.23-.23-.23.1-.23.23.1.23.23.23Z"/>
      <path class="cls-1" d="M190.07,148.46s.06-.03.06-.06-.03-.06-.06-.06-.06.03-.06.06.03.06.06.06Z"/>
      <path class="cls-1" d="M161.88,202.12s.03-.01.03-.03-.01-.03-.03-.03-.03.01-.03.03.01.03.03.03Z"/>
      <path class="cls-1" d="M149.16,200.17s.09-.04.09-.09-.04-.09-.09-.09-.09.04-.09.09.04.09.09.09Z"/>
      <path class="cls-1" d="M137.7,194.49c.14,0,.26-.11.26-.26s-.11-.26-.26-.26-.26.11-.26.26.11.26.26.26Z"/>
      <path class="cls-1" d="M128.59,185.59c.25,0,.46-.2.46-.46s-.2-.46-.46-.46-.46.2-.46.46.21.46.46.46Z"/>
      <path class="cls-1" d="M122.75,174.38c.39,0,.71-.32.71-.71s-.32-.71-.71-.71-.71.32-.71.71.32.71.71.71Z"/>
      <path class="cls-1" d="M120.74,161.84c.49,0,.88-.4.88-.88s-.39-.88-.88-.88-.88.4-.88.88.4.88.88.88Z"/>
      <path class="cls-1" d="M122.75,149.29c.58,0,1.05-.47,1.05-1.06s-.47-1.06-1.05-1.06-1.06.47-1.06,1.06.47,1.06,1.06,1.06Z"/>
      <path class="cls-1" d="M128.59,137.77c.55,0,1-.45,1-1s-.45-1-1-1-1,.45-1,1,.45,1,1,1Z"/>
      <circle class="cls-1" cx="137.7" cy="127.67" r=".91"/>
      <path class="cls-1" d="M149.16,122.59c.43,0,.77-.35.77-.77s-.35-.77-.77-.77-.77.34-.77.77.35.77.77.77Z"/>
      <path class="cls-1" d="M161.88,120.41c.33,0,.6-.27.6-.6s-.27-.6-.6-.6-.6.27-.6.6.27.6.6.6Z"/>
      <path class="cls-1" d="M174.59,122.25c.24,0,.43-.19.43-.43s-.19-.43-.43-.43-.43.19-.43.43.19.43.43.43Z"/>
      <path class="cls-1" d="M186.06,127.92c.14,0,.26-.12.26-.26s-.12-.26-.26-.26-.26.12-.26.26.12.26.26.26Z"/>
      <path class="cls-1" d="M195.16,136.85s.09-.04.09-.09-.04-.09-.09-.09-.09.04-.09.09.04.09.09.09Z"/>
      <path class="cls-1" d="M152.24,211.5s.03-.01.03-.03-.01-.03-.03-.03-.03.01-.03.03.01.03.03.03Z"/>
      <path class="cls-1" d="M139.98,207.54s.06-.03.06-.06-.03-.06-.06-.06-.06.03-.06.06.03.06.06.06Z"/>
      <path class="cls-1" d="M129.1,200.81c.13,0,.23-.1.23-.23s-.1-.23-.23-.23-.23.1-.23.23.1.23.23.23Z"/>
      <path class="cls-1" d="M120.27,191.61c.24,0,.43-.19.43-.43s-.19-.43-.43-.43-.43.19-.43.43.19.43.43.43Z"/>
      <path class="cls-1" d="M114.06,180.54c.36,0,.66-.29.66-.66s-.29-.66-.66-.66-.65.29-.65.66.29.66.65.66Z"/>
      <path class="cls-1" d="M110.86,168.23c.46,0,.83-.37.83-.83s-.37-.83-.83-.83-.83.37-.83.83.37.83.83.83Z"/>
      <path class="cls-1" d="M110.86,155.73c.68,0,1.23-.55,1.23-1.23s-.55-1.23-1.23-1.23-1.23.55-1.23,1.23.55,1.23,1.23,1.23Z"/>
      <path class="cls-1" d="M114.06,143.47c.8,0,1.46-.65,1.46-1.45s-.65-1.45-1.46-1.45-1.45.65-1.45,1.45.65,1.45,1.45,1.45Z"/>
      <path class="cls-1" d="M120.27,132.12c.77,0,1.4-.63,1.4-1.4s-.63-1.4-1.4-1.4-1.4.63-1.4,1.4.62,1.4,1.4,1.4Z"/>
      <path class="cls-1" d="M129.1,122.58c.69,0,1.26-.56,1.26-1.25s-.56-1.25-1.26-1.25-1.25.56-1.25,1.25.56,1.25,1.25,1.25Z"/>
      <path class="cls-1" d="M139.98,115.42c.55,0,1-.45,1-1s-.45-1-1-1-1,.45-1,1,.45,1,1,1Z"/>
      <path class="cls-1" d="M152.24,111.26c.46,0,.83-.37.83-.83s-.37-.83-.83-.83-.83.37-.83.83.37.83.83.83Z"/>
      <path class="cls-1" d="M165.11,110.25c.35,0,.63-.28.63-.63s-.28-.63-.63-.63-.63.28-.63.63.28.63.63.63Z"/>
      <path class="cls-1" d="M177.77,112.35c.17,0,.31-.14.31-.31s-.14-.31-.31-.31-.31.14-.31.31.14.31.31.31Z"/>
      <path class="cls-1" d="M189.44,117.7c.09,0,.17-.08.17-.17s-.08-.17-.17-.17-.17.08-.17.17.08.17.17.17Z"/>
      <path class="cls-1" d="M199.37,125.78s.03-.01.03-.03-.01-.03-.03-.03c-.02,0-.03.01-.03.03s.01.03.03.03Z"/>
      <path class="cls-1" d="M131.02,214.54c.08,0,.14-.06.14-.14s-.06-.14-.14-.14-.14.06-.14.14.06.14.14.14Z"/>
      <path class="cls-1" d="M120.58,206.99c.09,0,.17-.08.17-.17s-.08-.17-.17-.17-.17.08-.17.17.08.17.17.17Z"/>
      <path class="cls-1" d="M111.95,197.6c.2,0,.37-.17.37-.37s-.17-.37-.37-.37-.37.17-.37.37.17.37.37.37Z"/>
      <path class="cls-1" d="M105.5,186.54c.27,0,.48-.22.48-.48s-.22-.48-.48-.48-.48.22-.48.48.22.48.48.48Z"/>
      <path class="cls-1" d="M101.51,174.72c.52,0,.94-.42.94-.94s-.42-.94-.94-.94-.94.42-.94.94.42.94.94.94Z"/>
      <path class="cls-1" d="M100.16,162.12c.65,0,1.17-.52,1.17-1.17s-.52-1.17-1.17-1.17-1.17.52-1.17,1.17.52,1.17,1.17,1.17Z"/>
      <path class="cls-1" d="M101.51,149.55c.79,0,1.43-.64,1.43-1.43s-.64-1.43-1.43-1.43-1.43.64-1.43,1.43.64,1.43,1.43,1.43Z"/>
      <path class="cls-1" d="M105.5,137.31c.8,0,1.45-.65,1.45-1.45s-.65-1.45-1.45-1.45-1.46.65-1.46,1.45.65,1.45,1.46,1.45Z"/>
      <path class="cls-1" d="M111.95,126.36c.93,0,1.68-.75,1.68-1.68s-.75-1.68-1.68-1.68-1.68.75-1.68,1.68.75,1.68,1.68,1.68Z"/>
      <path class="cls-1" d="M120.58,116.63c.85,0,1.54-.69,1.54-1.54s-.69-1.54-1.54-1.54-1.54.69-1.54,1.54.69,1.54,1.54,1.54Z"/>
      <path class="cls-1" d="M131.02,108.82c.72,0,1.31-.59,1.31-1.31s-.59-1.31-1.31-1.31-1.31.59-1.31,1.31.59,1.31,1.31,1.31Z"/>
      <path class="cls-1" d="M142.81,103.34c.6,0,1.08-.49,1.08-1.08s-.48-1.08-1.08-1.08-1.08.48-1.08,1.08.48,1.08,1.08,1.08Z"/>
      <path class="cls-1" d="M155.43,100.4c.46,0,.83-.37.83-.83s-.37-.83-.83-.83-.83.37-.83.83.37.83.83.83Z"/>
      <path class="cls-1" d="M168.33,100.03c.25,0,.46-.2.46-.46s-.2-.46-.46-.46-.46.2-.46.46.21.46.46.46Z"/>
      <path class="cls-1" d="M180.95,102.57c.17,0,.31-.14.31-.31s-.14-.31-.31-.31-.31.14-.31.31.14.31.31.31Z"/>
      <path class="cls-1" d="M192.74,107.68c.09,0,.17-.08.17-.17s-.08-.17-.17-.17-.17.08-.17.17.08.17.17.17Z"/>
      <path class="cls-1" d="M203.17,115.15s.06-.03.06-.06-.03-.06-.06-.06-.06.03-.06.06.03.06.06.06Z"/>
      <path class="cls-1" d="M122.21,221.13s.09-.04.09-.09-.04-.09-.09-.09-.08.04-.08.09.04.09.08.09Z"/>
      <path class="cls-1" d="M112.12,213.22c.13,0,.23-.1.23-.23s-.1-.23-.23-.23-.23.1-.23.23.1.23.23.23Z"/>
      <path class="cls-1" d="M103.63,203.67c.22,0,.4-.18.4-.4s-.18-.4-.4-.4-.4.18-.4.4.18.4.4.4Z"/>
      <path class="cls-1" d="M97.01,192.76c.32,0,.57-.26.57-.57s-.26-.57-.57-.57-.57.26-.57.57.26.57.57.57Z"/>
      <path class="cls-1" d="M92.47,180.93c.46,0,.83-.37.83-.83s-.37-.83-.83-.83-.83.37-.83.83.37.83.83.83Z"/>
      <path class="cls-1" d="M90.17,168.43c.57,0,1.03-.46,1.03-1.03s-.46-1.03-1.03-1.03-1.03.46-1.03,1.03.46,1.03,1.03,1.03Z"/>
      <path class="cls-1" d="M90.17,156.1c.88,0,1.6-.71,1.6-1.6s-.71-1.6-1.6-1.6-1.6.72-1.6,1.6.72,1.6,1.6,1.6Z"/>
      <path class="cls-1" d="M92.47,143.71c1.06,0,1.91-.86,1.91-1.91s-.86-1.91-1.91-1.91-1.91.86-1.91,1.91.86,1.91,1.91,1.91Z"/>
      <path class="cls-1" d="M97.01,131.68c1.09,0,1.97-.88,1.97-1.97s-.88-1.97-1.97-1.97-1.97.88-1.97,1.97.88,1.97,1.97,1.97Z"/>
      <path class="cls-1" d="M103.63,120.86c1.23,0,2.22-1,2.22-2.22s-1-2.23-2.22-2.23-2.22,1-2.22,2.23,1,2.22,2.22,2.22Z"/>
      <path class="cls-1" d="M112.12,110.94c1.12,0,2.03-.91,2.03-2.02s-.91-2.03-2.03-2.03-2.02.91-2.02,2.03.91,2.02,2.02,2.02Z"/>
      <path class="cls-1" d="M122.21,102.55c.93,0,1.68-.75,1.68-1.68s-.75-1.68-1.68-1.68-1.68.75-1.68,1.68.75,1.68,1.68,1.68Z"/>
      <path class="cls-1" d="M133.58,96.12c.76,0,1.37-.61,1.37-1.37s-.61-1.37-1.37-1.37-1.37.61-1.37,1.37.61,1.37,1.37,1.37Z"/>
      <path class="cls-1" d="M145.86,91.58c.46,0,.83-.37.83-.83s-.37-.83-.83-.83-.83.37-.83.83.37.83.83.83Z"/>
      <path class="cls-1" d="M158.65,89.65c.35,0,.63-.28.63-.63s-.28-.63-.63-.63-.63.28-.63.63.28.63.63.63Z"/>
      <path class="cls-1" d="M171.54,90.06c.25,0,.46-.2.46-.46s-.21-.46-.46-.46-.46.2-.46.46.21.46.46.46Z"/>
      <path class="cls-1" d="M184.13,92.79c.17,0,.31-.14.31-.31s-.14-.31-.31-.31-.31.14-.31.31.14.31.31.31Z"/>
      <path class="cls-1" d="M196,97.75c.11,0,.2-.09.2-.2s-.09-.2-.2-.2-.2.09-.2.2.09.2.2.2Z"/>
      <path class="cls-1" d="M206.77,104.72s.06-.03.06-.06-.03-.06-.06-.06-.06.03-.06.06.03.06.06.06Z"/>
      <path class="cls-1" d="M113.51,227.55s.03-.01.03-.03-.01-.03-.03-.03-.03.01-.03.03.01.03.03.03Z"/>
      <path class="cls-1" d="M103.69,219.28c.08,0,.14-.06.14-.14s-.06-.14-.14-.14-.14.06-.14.14.06.14.14.14Z"/>
      <path class="cls-1" d="M95.31,209.6c.16,0,.29-.13.29-.29s-.13-.29-.29-.29-.29.13-.29.29.13.29.29.29Z"/>
      <path class="cls-1" d="M88.56,198.77c.25,0,.46-.2.46-.46s-.2-.46-.46-.46-.46.2-.46.46.2.46.46.46Z"/>
      <path class="cls-1" d="M83.62,187.04c.36,0,.66-.29.66-.66s-.29-.66-.66-.66-.65.29-.65.66.29.66.65.66Z"/>
      <path class="cls-1" d="M80.61,174.91c.6,0,1.08-.49,1.08-1.08s-.48-1.08-1.08-1.08-1.08.49-1.08,1.08.49,1.08,1.08,1.08Z"/>
      <path class="cls-1" d="M79.59,162.32c.76,0,1.37-.61,1.37-1.37s-.61-1.37-1.37-1.37-1.37.61-1.37,1.37.61,1.37,1.37,1.37Z"/>
      <path class="cls-1" d="M80.61,149.79c.95,0,1.71-.77,1.71-1.71s-.77-1.71-1.71-1.71-1.71.77-1.71,1.71.77,1.71,1.71,1.71Z"/>
      <path class="cls-1" d="M83.62,137.61c1.15,0,2.08-.93,2.08-2.08s-.93-2.08-2.08-2.08-2.08.93-2.08,2.08.93,2.08,2.08,2.08Z"/>
      <path class="cls-1" d="M88.56,126.25c1.46,0,2.65-1.19,2.65-2.65s-1.19-2.65-2.65-2.65-2.65,1.19-2.65,2.65,1.19,2.65,2.65,2.65Z"/>
      <path class="cls-1" d="M95.31,115.04c1.35,0,2.45-1.1,2.45-2.45s-1.1-2.45-2.45-2.45-2.45,1.1-2.45,2.45,1.1,2.45,2.45,2.45Z"/>
      <path class="cls-1" d="M103.69,105.31c1.4,0,2.54-1.14,2.54-2.54s-1.14-2.54-2.54-2.54-2.54,1.14-2.54,2.54,1.14,2.54,2.54,2.54Z"/>
      <path class="cls-1" d="M113.51,96.46c1.15,0,2.08-.93,2.08-2.08s-.93-2.08-2.08-2.08-2.08.93-2.08,2.08.93,2.08,2.08,2.08Z"/>
      <path class="cls-1" d="M124.52,89.32c.93,0,1.68-.75,1.68-1.68s-.75-1.68-1.68-1.68-1.68.75-1.68,1.68.75,1.68,1.68,1.68Z"/>
      <path class="cls-1" d="M136.45,83.72c.57,0,1.03-.46,1.03-1.03s-.46-1.03-1.03-1.03-1.03.46-1.03,1.03.46,1.03,1.03,1.03Z"/>
      <path class="cls-1" d="M149.01,80.48c.44,0,.8-.36.8-.8s-.36-.8-.8-.8-.8.36-.8.8.36.8.8.8Z"/>
      <path class="cls-1" d="M161.88,79.27c.33,0,.6-.27.6-.6s-.27-.6-.6-.6-.6.27-.6.6.27.6.6.6Z"/>
      <path class="cls-1" d="M174.75,80.14c.25,0,.46-.2.46-.46s-.21-.46-.46-.46-.46.2-.46.46.2.46.46.46Z"/>
      <path class="cls-1" d="M187.31,82.86c.09,0,.17-.08.17-.17s-.08-.17-.17-.17-.17.08-.17.17.08.17.17.17Z"/>
      <path class="cls-1" d="M199.24,87.69s.06-.03.06-.06-.03-.06-.06-.06c-.03,0-.06.03-.06.06s.03.06.06.06Z"/>
      <path class="cls-1" d="M104.88,233.93s.03-.01.03-.03-.01-.03-.03-.03c-.02,0-.03.01-.03.03s.01.03.03.03Z"/>
      <path class="cls-1" d="M95.29,225.4c.08,0,.14-.06.14-.14s-.06-.14-.14-.14-.14.06-.14.14.06.14.14.14Z"/>
      <path class="cls-1" d="M86.99,215.68c.17,0,.31-.14.31-.31s-.14-.31-.31-.31-.31.14-.31.31.14.31.31.31Z"/>
      <path class="cls-1" d="M80.14,204.9c.27,0,.48-.22.48-.48s-.22-.48-.48-.48-.48.22-.48.48.22.48.48.48Z"/>
      <path class="cls-1" d="M74.89,193.27c.36,0,.65-.29.65-.66s-.29-.66-.65-.66-.66.29-.66.66.29.66.66.66Z"/>
      <path class="cls-1" d="M71.33,181.08c.49,0,.88-.4.88-.88s-.4-.88-.88-.88-.88.4-.88.88.4.88.88.88Z"/>
      <path class="cls-1" d="M69.53,168.55c.63,0,1.14-.51,1.14-1.14s-.51-1.14-1.14-1.14-1.14.51-1.14,1.14.51,1.14,1.14,1.14Z"/>
      <path class="cls-1" d="M69.53,156.26c.98,0,1.77-.79,1.77-1.77s-.79-1.77-1.77-1.77-1.77.79-1.77,1.77.79,1.77,1.77,1.77Z"/>
      <path class="cls-1" d="M71.33,143.87c1.2,0,2.17-.97,2.17-2.17s-.97-2.17-2.17-2.17-2.17.97-2.17,2.17.97,2.17,2.17,2.17Z"/>
      <path class="cls-1" d="M74.89,131.8c1.38,0,2.51-1.12,2.51-2.51s-1.12-2.51-2.51-2.51-2.51,1.12-2.51,2.51,1.12,2.51,2.51,2.51Z"/>
      <path class="cls-1" d="M80.14,120.52c1.67,0,3.02-1.35,3.02-3.02s-1.35-3.02-3.02-3.02-3.02,1.35-3.02,3.02,1.35,3.02,3.02,3.02Z"/>
      <circle class="cls-1" cx="86.99" cy="106.54" r="2.97" transform="translate(-.45 .37) rotate(-.24)"/>
      <path class="cls-1" d="M95.29,99.19c1.4,0,2.54-1.14,2.54-2.54s-1.14-2.54-2.54-2.54-2.54,1.14-2.54,2.54,1.14,2.54,2.54,2.54Z"/>
      <path class="cls-1" d="M104.88,90.09c1.15,0,2.08-.93,2.08-2.08s-.93-2.08-2.08-2.08-2.08.93-2.08,2.08.93,2.08,2.08,2.08Z"/>
      <path class="cls-1" d="M115.59,82.41c.9,0,1.63-.73,1.63-1.63s-.73-1.63-1.63-1.63-1.62.73-1.62,1.63.73,1.63,1.62,1.63Z"/>
      <path class="cls-1" d="M127.2,76.43c.72,0,1.31-.59,1.31-1.31s-.59-1.31-1.31-1.31-1.31.59-1.31,1.31.59,1.31,1.31,1.31Z"/>
      <path class="cls-1" d="M139.48,72.1c.54,0,.97-.43.97-.97s-.43-.97-.97-.97-.97.43-.97.97.43.97.97.97Z"/>
      <path class="cls-1" d="M152.2,69.63c.41,0,.74-.33.74-.74s-.33-.74-.74-.74-.74.33-.74.74.33.74.74.74Z"/>
      <path class="cls-1" d="M165.11,69.01c.31,0,.57-.26.57-.57s-.26-.57-.57-.57-.57.26-.57.57.26.57.57.57Z"/>
      <path class="cls-1" d="M177.95,70.07c.16,0,.29-.13.29-.29s-.13-.29-.29-.29-.29.13-.29.29.13.29.29.29Z"/>
      <path class="cls-1" d="M190.48,73.08c.09,0,.17-.08.17-.17s-.08-.17-.17-.17-.17.08-.17.17.08.17.17.17Z"/>
      <path class="cls-1" d="M202.46,77.81s.06-.03.06-.06-.03-.06-.06-.06-.06.03-.06.06.03.06.06.06Z"/>
      <circle class="cls-1" cx="86.9" cy="231.36" r=".06"/>
      <path class="cls-1" d="M78.67,221.61c.11,0,.2-.09.2-.2s-.09-.2-.2-.2-.2.09-.2.2.09.2.2.2Z"/>
      <circle class="cls-1" cx="71.74" cy="210.5" r=".34"/>
      <path class="cls-1" d="M66.24,199.3c.27,0,.48-.22.48-.48s-.22-.48-.48-.48-.48.22-.48.48.22.48.48.48Z"/>
      <path class="cls-1" d="M62.25,187.22c.38,0,.69-.31.69-.68s-.31-.68-.69-.68-.68.31-.68.68.31.68.68.68Z"/>
      <path class="cls-1" d="M59.83,174.96c.62,0,1.11-.5,1.11-1.11s-.5-1.11-1.11-1.11-1.11.5-1.11,1.11.5,1.11,1.11,1.11Z"/>
      <path class="cls-1" d="M59.02,162.38c.79,0,1.43-.64,1.43-1.43s-.64-1.43-1.43-1.43-1.43.64-1.43,1.43.64,1.43,1.43,1.43Z"/>
      <path class="cls-1" d="M59.83,149.83c.98,0,1.77-.79,1.77-1.77s-.79-1.77-1.77-1.77-1.77.79-1.77,1.77.79,1.77,1.77,1.77Z"/>
      <path class="cls-1" d="M62.25,137.54c1.2,0,2.17-.97,2.17-2.17s-.97-2.17-2.17-2.17-2.17.97-2.17,2.17.97,2.17,2.17,2.17Z"/>
      <path class="cls-1" d="M66.24,126.31c1.78,0,3.22-1.44,3.22-3.22s-1.44-3.22-3.22-3.22-3.22,1.44-3.22,3.22,1.44,3.22,3.22,3.22Z"/>
      <circle class="cls-1" cx="71.74" cy="111.4" r="3.88"/>
      <path class="cls-1" d="M78.67,104.29c2.09,0,3.79-1.7,3.79-3.79s-1.7-3.79-3.79-3.79-3.79,1.7-3.79,3.79,1.7,3.79,3.79,3.79Z"/>
      <path class="cls-1" d="M86.9,93.59c1.69,0,3.05-1.37,3.05-3.05s-1.37-3.05-3.05-3.05-3.05,1.37-3.05,3.05,1.37,3.05,3.05,3.05Z"/>
      <path class="cls-1" d="M96.31,84.07c1.31,0,2.37-1.06,2.37-2.37s-1.06-2.37-2.37-2.37-2.37,1.06-2.37,2.37,1.06,2.37,2.37,2.37Z"/>
      <path class="cls-1" d="M106.77,76.05c1.07,0,1.94-.87,1.94-1.94s-.87-1.94-1.94-1.94-1.94.87-1.94,1.94.87,1.94,1.94,1.94Z"/>
      <path class="cls-1" d="M118.08,69.37c.82,0,1.48-.66,1.48-1.48s-.66-1.48-1.48-1.48-1.48.66-1.48,1.48.66,1.48,1.48,1.48Z"/>
      <path class="cls-1" d="M130.09,64.33c.66,0,1.2-.54,1.2-1.2s-.54-1.2-1.2-1.2-1.2.54-1.2,1.2.54,1.2,1.2,1.2Z"/>
      <path class="cls-1" d="M142.61,60.77c.47,0,.86-.38.86-.86s-.38-.86-.86-.86-.86.38-.86.86.38.86.86.86Z"/>
      <path class="cls-1" d="M155.42,58.98c.38,0,.69-.31.69-.68s-.31-.68-.69-.68-.68.31-.68.68.31.68.68.68Z"/>
      <path class="cls-1" d="M168.34,58.67c.2,0,.37-.17.37-.37s-.17-.37-.37-.37-.37.17-.37.37.17.37.37.37Z"/>
      <circle class="cls-1" cx="181.15" cy="59.92" r=".23"/>
      <path class="cls-1" d="M193.66,63.27c.08,0,.14-.06.14-.14s-.06-.14-.14-.14-.14.06-.14.14.06.14.14.14Z"/>
      <path class="cls-1" d="M205.67,67.94s.06-.03.06-.06-.03-.06-.06-.06c-.03,0-.06.03-.06.06s.03.06.06.06Z"/>
      <path class="cls-1" d="M70.34,227.54s.09-.04.09-.09-.04-.09-.09-.09-.09.04-.09.09.04.09.09.09Z"/>
      <path class="cls-1" d="M63.36,216.93c.19,0,.34-.15.34-.34s-.15-.34-.34-.34-.34.15-.34.34.15.34.34.34Z"/>
      <path class="cls-1" d="M57.66,205.48c.27,0,.48-.22.48-.48s-.22-.48-.48-.48-.48.22-.48.48.22.48.48.48Z"/>
      <path class="cls-1" d="M53.32,193.51c.38,0,.69-.31.69-.68s-.31-.68-.69-.68-.68.31-.68.68.31.68.68.68Z"/>
      <path class="cls-1" d="M50.39,181.1c.47,0,.86-.38.86-.86s-.38-.86-.86-.86-.86.38-.86.86.38.86.86.86Z"/>
      <path class="cls-1" d="M48.92,168.5c.6,0,1.08-.49,1.08-1.08s-.48-1.08-1.08-1.08-1.08.49-1.08,1.08.49,1.08,1.08,1.08Z"/>
      <path class="cls-1" d="M48.92,156.2c.95,0,1.71-.77,1.71-1.71s-.77-1.71-1.71-1.71-1.71.77-1.71,1.71.77,1.71,1.71,1.71Z"/>
      <path class="cls-1" d="M50.39,143.74c1.15,0,2.08-.93,2.08-2.08s-.93-2.08-2.08-2.08-2.08.93-2.08,2.08.93,2.08,2.08,2.08Z"/>
      <path class="cls-1" d="M53.32,131.73c1.46,0,2.65-1.19,2.65-2.65s-1.19-2.65-2.65-2.65-2.65,1.19-2.65,2.65,1.19,2.65,2.65,2.65Z"/>
      <path class="cls-1" d="M57.66,120.13c1.78,0,3.22-1.44,3.22-3.22s-1.44-3.22-3.22-3.22-3.22,1.44-3.22,3.22,1.44,3.22,3.22,3.22Z"/>
      <path class="cls-1" d="M63.36,109.2c2.14,0,3.88-1.74,3.88-3.88s-1.74-3.88-3.88-3.88-3.88,1.74-3.88,3.88,1.74,3.88,3.88,3.88Z"/>
      <path class="cls-1" d="M70.34,98.96c2.49,0,4.51-2.02,4.51-4.51s-2.02-4.51-4.51-4.51-4.51,2.02-4.51,4.51,2.02,4.51,4.51,4.51Z"/>
      <path class="cls-1" d="M78.52,88.13c2.03,0,3.68-1.65,3.68-3.68s-1.65-3.68-3.68-3.68-3.68,1.65-3.68,3.68,1.65,3.68,3.68,3.68Z"/>
      <path class="cls-1" d="M87.79,78.24c1.54,0,2.79-1.25,2.79-2.8s-1.25-2.8-2.79-2.8-2.79,1.25-2.79,2.8,1.25,2.8,2.79,2.8Z"/>
      <path class="cls-1" d="M98.02,69.67c1.17,0,2.11-.94,2.11-2.11s-.95-2.11-2.11-2.11-2.11.95-2.11,2.11.95,2.11,2.11,2.11Z"/>
      <path class="cls-1" d="M109.08,62.45c.87,0,1.57-.7,1.57-1.57s-.7-1.57-1.57-1.57-1.57.7-1.57,1.57.7,1.57,1.57,1.57Z"/>
      <path class="cls-1" d="M120.83,56.83c.72,0,1.31-.59,1.31-1.31s-.59-1.31-1.31-1.31-1.31.59-1.31,1.31.59,1.31,1.31,1.31Z"/>
      <path class="cls-1" d="M133.12,52.47c.52,0,.94-.42.94-.94s-.42-.94-.94-.94-.94.42-.94.94.42.94.94.94Z"/>
      <path class="cls-1" d="M145.78,49.56c.33,0,.6-.27.6-.6s-.27-.6-.6-.6-.6.27-.6.6.27.6.6.6Z"/>
      <path class="cls-1" d="M158.65,48.31c.25,0,.46-.2.46-.46s-.21-.46-.46-.46-.46.2-.46.46.2.46.46.46Z"/>
      <path class="cls-1" d="M171.56,48.54c.17,0,.31-.14.31-.31s-.14-.31-.31-.31-.31.14-.31.31.14.31.31.31Z"/>
      <path class="cls-1" d="M184.35,50.26c.11,0,.2-.09.2-.2s-.09-.2-.2-.2-.2.09-.2.2.09.2.2.2Z"/>
      <path class="cls-1" d="M196.84,53.38s.03-.01.03-.03-.01-.03-.03-.03-.03.01-.03.03.01.03.03.03Z"/>
      <path class="cls-1" d="M62.02,233.59s.08-.04.08-.09-.04-.09-.08-.09-.09.04-.09.09.04.09.09.09Z"/>
      <path class="cls-1" d="M54.99,222.87c.11,0,.2-.09.2-.2s-.09-.2-.2-.2-.2.09-.2.2.09.2.2.2Z"/>
      <circle class="cls-1" cx="49.12" cy="211.16" r=".34"/>
      <path class="cls-1" d="M44.49,199.58c.27,0,.49-.22.49-.48s-.22-.48-.49-.48-.48.22-.48.48.22.48.48.48Z"/>
      <path class="cls-1" d="M41.15,187.24c.35,0,.63-.28.63-.63s-.28-.63-.63-.63-.63.28-.63.63.28.63.63.63Z"/>
      <path class="cls-1" d="M39.13,174.88c.57,0,1.03-.46,1.03-1.03s-.46-1.03-1.03-1.03-1.03.46-1.03,1.03.46,1.03,1.03,1.03Z"/>
      <path class="cls-1" d="M38.45,162.24c.71,0,1.28-.57,1.28-1.28s-.57-1.28-1.28-1.28-1.28.57-1.28,1.28.57,1.28,1.28,1.28Z"/>
      <path class="cls-1" d="M39.12,149.62c.87,0,1.57-.7,1.57-1.57s-.7-1.57-1.57-1.57-1.57.7-1.57,1.57.7,1.57,1.57,1.57Z"/>
      <path class="cls-1" d="M41.15,137.17c1.04,0,1.88-.84,1.88-1.88s-.84-1.88-1.88-1.88-1.88.84-1.88,1.88.84,1.88,1.88,1.88Z"/>
      <path class="cls-1" d="M44.49,125.83c1.67,0,3.02-1.35,3.02-3.02s-1.35-3.02-3.02-3.02-3.02,1.35-3.02,3.02,1.35,3.02,3.02,3.02Z"/>
      <path class="cls-1" d="M49.12,114.2c1.91,0,3.45-1.55,3.45-3.45s-1.54-3.45-3.45-3.45-3.45,1.54-3.45,3.45,1.54,3.45,3.45,3.45Z"/>
      <path class="cls-1" d="M54.99,103.66c2.44,0,4.42-1.98,4.42-4.42s-1.98-4.42-4.42-4.42-4.42,1.98-4.42,4.42,1.98,4.42,4.42,4.42Z"/>
      <path class="cls-1" d="M62.02,92.54c2.29,0,4.14-1.85,4.14-4.14s-1.85-4.14-4.14-4.14-4.13,1.85-4.13,4.14,1.85,4.14,4.13,4.14Z"/>
      <path class="cls-1" d="M70.15,81.93c1.97,0,3.57-1.6,3.57-3.57s-1.6-3.56-3.57-3.56-3.56,1.6-3.56,3.56,1.6,3.57,3.56,3.57Z"/>
      <path class="cls-1" d="M79.29,71.96c1.51,0,2.74-1.23,2.74-2.74s-1.23-2.74-2.74-2.74-2.74,1.23-2.74,2.74,1.22,2.74,2.74,2.74Z"/>
      <circle class="cls-1" cx="89.33" cy="61.1" r="2.08"/>
      <path class="cls-1" d="M100.16,55.91c1.02,0,1.85-.83,1.85-1.85s-.83-1.85-1.85-1.85-1.85.83-1.85,1.85.83,1.85,1.85,1.85Z"/>
      <path class="cls-1" d="M111.68,49.54c.74,0,1.34-.6,1.34-1.34s-.6-1.34-1.34-1.34-1.34.6-1.34,1.34.6,1.34,1.34,1.34Z"/>
      <path class="cls-1" d="M123.74,44.71c.63,0,1.14-.51,1.14-1.14s-.51-1.14-1.14-1.14-1.14.51-1.14,1.14.51,1.14,1.14,1.14Z"/>
      <path class="cls-1" d="M136.22,40.88c.36,0,.65-.29.65-.66s-.29-.66-.65-.66-.66.29-.66.66.29.66.66.66Z"/>
      <path class="cls-1" d="M148.98,38.68c.27,0,.48-.22.48-.48s-.22-.48-.48-.48-.48.22-.48.48.22.48.48.48Z"/>
      <path class="cls-1" d="M161.88,37.89c.2,0,.37-.17.37-.37s-.17-.37-.37-.37-.37.17-.37.37.17.37.37.37Z"/>
      <path class="cls-1" d="M174.78,38.46c.14,0,.26-.12.26-.26s-.12-.26-.26-.26-.26.12-.26.26.12.26.26.26Z"/>
      <path class="cls-1" d="M187.54,40.28s.06-.03.06-.06-.03-.06-.06-.06c-.03,0-.06.03-.06.06s.03.06.06.06Z"/>
      <path class="cls-1" d="M46.62,228.83s.09-.04.09-.09-.04-.09-.09-.09-.09.04-.09.09.04.09.09.09Z"/>
      <path class="cls-1" d="M40.62,217.47c.09,0,.17-.08.17-.17s-.08-.17-.17-.17-.17.08-.17.17.08.17.17.17Z"/>
      <path class="cls-1" d="M35.74,205.79c.25,0,.46-.2.46-.46s-.2-.46-.46-.46-.46.2-.46.46.21.46.46.46Z"/>
      <path class="cls-1" d="M32.05,193.49c.3,0,.54-.24.54-.54s-.24-.54-.54-.54-.54.24-.54.54.24.54.54.54Z"/>
      <path class="cls-1" d="M29.57,181.01c.41,0,.74-.33.74-.74s-.33-.74-.74-.74-.74.33-.74.74.33.74.74.74Z"/>
      <circle class="cls-1" cx="28.32" cy="167.41" r=".91"/>
      <path class="cls-1" d="M28.32,155.89c.77,0,1.4-.63,1.4-1.4s-.63-1.4-1.4-1.4-1.4.63-1.4,1.4.63,1.4,1.4,1.4Z"/>
      <circle class="cls-1" cx="29.57" cy="141.63" r="1.65"/>
      <path class="cls-1" d="M32.05,130.89c1.07,0,1.94-.87,1.94-1.94s-.87-1.94-1.94-1.94-1.94.87-1.94,1.94.87,1.94,1.94,1.94Z"/>
      <circle class="cls-1" cx="35.74" cy="116.57" r="2.62"/>
      <path class="cls-1" d="M40.62,107.54c1.62,0,2.94-1.32,2.94-2.94s-1.32-2.94-2.94-2.94-2.94,1.32-2.94,2.94,1.32,2.94,2.94,2.94Z"/>
      <path class="cls-1" d="M46.62,96.76c1.98,0,3.59-1.61,3.59-3.59s-1.61-3.59-3.59-3.59-3.59,1.61-3.59,3.59,1.61,3.59,3.59,3.59Z"/>
      <path class="cls-1" d="M53.7,85.89c1.95,0,3.54-1.58,3.54-3.54s-1.58-3.54-3.54-3.54-3.54,1.58-3.54,3.54,1.58,3.54,3.54,3.54Z"/>
      <path class="cls-1" d="M61.79,75.22c1.62,0,2.94-1.32,2.94-2.94s-1.32-2.94-2.94-2.94-2.94,1.32-2.94,2.94,1.32,2.94,2.94,2.94Z"/>
      <path class="cls-1" d="M70.82,65.98c1.62,0,2.94-1.32,2.94-2.94s-1.32-2.94-2.94-2.94-2.94,1.32-2.94,2.94,1.32,2.94,2.94,2.94Z"/>
      <path class="cls-1" d="M80.69,56.99c1.26,0,2.28-1.02,2.28-2.28s-1.02-2.28-2.28-2.28-2.28,1.02-2.28,2.28,1.02,2.28,2.28,2.28Z"/>
      <path class="cls-1" d="M91.33,49.08c.95,0,1.71-.77,1.71-1.71s-.77-1.71-1.71-1.71-1.71.77-1.71,1.71.77,1.71,1.71,1.71Z"/>
      <path class="cls-1" d="M102.62,42.37c.71,0,1.28-.57,1.28-1.28s-.57-1.28-1.28-1.28-1.28.57-1.28,1.28.57,1.28,1.28,1.28Z"/>
      <path class="cls-1" d="M114.46,37.04c.61,0,1.11-.5,1.11-1.11s-.5-1.11-1.11-1.11-1.11.5-1.11,1.11.5,1.11,1.11,1.11Z"/>
      <path class="cls-1" d="M126.75,32.73c.44,0,.8-.36.8-.8s-.36-.8-.8-.8-.8.36-.8.8.36.8.8.8Z"/>
      <path class="cls-1" d="M139.37,29.69c.3,0,.54-.24.54-.54s-.24-.54-.54-.54-.54.24-.54.54.24.54.54.54Z"/>
      <path class="cls-1" d="M152.19,27.99c.22,0,.4-.18.4-.4s-.18-.4-.4-.4-.4.18-.4.4.18.4.4.4Z"/>
      <path class="cls-1" d="M165.11,27.56c.16,0,.29-.13.29-.29s-.13-.29-.29-.29-.29.13-.29.29.13.29.29.29Z"/>
      <path class="cls-1" d="M178,28.3s.09-.04.09-.09-.04-.09-.09-.09-.09.04-.09.09.04.09.09.09Z"/>
      <path class="cls-1" d="M38.26,234.87s.06-.03.06-.06-.03-.06-.06-.06-.06.03-.06.06.03.06.06.06Z"/>
      <path class="cls-1" d="M32.14,223.57c.08,0,.14-.06.14-.14s-.06-.14-.14-.14-.14.06-.14.14.06.14.14.14Z"/>
      <path class="cls-1" d="M27.06,211.84c.16,0,.29-.13.29-.29s-.13-.29-.29-.29-.29.13-.29.29.13.29.29.29Z"/>
      <path class="cls-1" d="M23.07,199.66c.22,0,.4-.18.4-.4s-.18-.4-.4-.4-.4.18-.4.4.18.4.4.4Z"/>
      <path class="cls-1" d="M20.19,187.15c.27,0,.48-.22.48-.48s-.22-.48-.48-.48-.49.22-.49.48.22.48.49.48Z"/>
      <path class="cls-1" d="M18.46,174.69c.45,0,.83-.37.83-.83s-.37-.83-.83-.83-.83.37-.83.83.37.83.83.83Z"/>
      <path class="cls-1" d="M17.88,161.95c.55,0,1-.45,1-1s-.45-1-1-1-1,.45-1,1,.45,1,1,1Z"/>
      <path class="cls-1" d="M18.46,149.24c.66,0,1.2-.54,1.2-1.2s-.54-1.2-1.2-1.2-1.2.54-1.2,1.2.54,1.2,1.2,1.2Z"/>
      <path class="cls-1" d="M20.19,136.69c.8,0,1.45-.65,1.45-1.45s-.65-1.45-1.45-1.45-1.45.65-1.45,1.45.65,1.45,1.45,1.45Z"/>
      <path class="cls-1" d="M23.07,124.84c1.21,0,2.2-.98,2.2-2.2s-.98-2.2-2.2-2.2-2.2.98-2.2,2.2.98,2.2,2.2,2.2Z"/>
      <circle class="cls-1" cx="27.06" cy="110.35" r="2.42" transform="translate(-.83 .21) rotate(-.43)"/>
      <path class="cls-1" d="M32.14,100.98c1.39,0,2.51-1.12,2.51-2.51s-1.12-2.51-2.51-2.51-2.51,1.12-2.51,2.51,1.12,2.51,2.51,2.51Z"/>
      <path class="cls-1" d="M38.26,90.15c1.69,0,3.05-1.37,3.05-3.05s-1.37-3.05-3.05-3.05-3.05,1.37-3.05,3.05,1.37,3.05,3.05,3.05Z"/>
      <path class="cls-1" d="M45.38,79.51c1.76,0,3.19-1.43,3.19-3.19s-1.43-3.19-3.19-3.19-3.2,1.43-3.2,3.19,1.43,3.19,3.2,3.19Z"/>
      <path class="cls-1" d="M53.44,69.15c1.62,0,2.94-1.32,2.94-2.94s-1.32-2.94-2.94-2.94-2.94,1.32-2.94,2.94,1.32,2.94,2.94,2.94Z"/>
      <path class="cls-1" d="M62.37,59.27c1.32,0,2.4-1.07,2.4-2.4s-1.07-2.4-2.4-2.4-2.4,1.07-2.4,2.4,1.07,2.4,2.4,2.4Z"/>
      <path class="cls-1" d="M72.1,50.34c1.09,0,1.97-.88,1.97-1.97s-.88-1.97-1.97-1.97-1.97.88-1.97,1.97.88,1.97,1.97,1.97Z"/>
      <path class="cls-1" d="M82.55,42.29c.84,0,1.51-.68,1.51-1.51s-.68-1.51-1.51-1.51-1.51.68-1.51,1.51.68,1.51,1.51,1.51Z"/>
      <path class="cls-1" d="M93.64,35.57c.79,0,1.43-.64,1.43-1.43s-.64-1.43-1.43-1.43-1.43.64-1.43,1.43.64,1.43,1.43,1.43Z"/>
      <circle class="cls-1" cx="105.28" cy="28.54" r=".91"/>
      <path class="cls-1" d="M117.38,24.8c.44,0,.8-.36.8-.8s-.36-.8-.8-.8-.8.36-.8.8.36.8.8.8Z"/>
      <path class="cls-1" d="M129.84,21.1c.3,0,.54-.24.54-.54s-.24-.54-.54-.54-.54.24-.54.54.24.54.54.54Z"/>
      <path class="cls-1" d="M142.55,18.65c.22,0,.4-.18.4-.4s-.18-.4-.4-.4-.4.18-.4.4.18.4.4.4Z"/>
      <path class="cls-1" d="M155.42,17.41c.17,0,.31-.14.31-.31s-.14-.31-.31-.31-.31.14-.31.31.14.31.31.31Z"/>
      <path class="cls-1" d="M168.34,17.21c.06,0,.11-.05.11-.11s-.05-.11-.11-.11-.12.05-.12.11.05.11.12.11Z"/>
      <path class="cls-1" d="M181.21,18.28s.03-.01.03-.03-.01-.03-.03-.03c-.02,0-.03.01-.03.03s.01.03.03.03Z"/>
      <path class="cls-1" d="M23.68,229.61s.06-.03.06-.06-.03-.06-.06-.06-.06.03-.06.06.03.06.06.06Z"/>
      <path class="cls-1" d="M18.43,217.86c.06,0,.11-.05.11-.11s-.05-.11-.11-.11-.12.05-.12.11.05.11.12.11Z"/>
      <path class="cls-1" d="M14.18,205.89c.19,0,.34-.15.34-.34s-.15-.34-.34-.34-.34.15-.34.34.15.34.34.34Z"/>
      <path class="cls-1" d="M10.96,193.52c.27,0,.48-.22.48-.48s-.22-.48-.48-.48-.49.22-.49.48.22.48.49.48Z"/>
      <path class="cls-1" d="M8.81,180.95c.36,0,.66-.29.66-.66s-.29-.66-.66-.66-.66.29-.66.66.29.66.66.66Z"/>
      <path class="cls-1" d="M7.73,168.24c.46,0,.83-.37.83-.83s-.37-.83-.83-.83-.83.37-.83.83.37.83.83.83Z"/>
      <path class="cls-1" d="M7.73,155.69c.66,0,1.2-.54,1.2-1.2s-.54-1.2-1.2-1.2-1.2.54-1.2,1.2.54,1.2,1.2,1.2Z"/>
      <path class="cls-1" d="M8.81,143.07c.8,0,1.45-.65,1.45-1.45s-.65-1.45-1.45-1.45-1.45.65-1.45,1.45.65,1.45,1.45,1.45Z"/>
      <circle class="cls-1" cx="10.96" cy="128.87" r="1.65"/>
      <circle class="cls-1" cx="14.18" cy="116.36" r="1.85"/>
      <path class="cls-1" d="M18.43,106.15c1.1,0,2-.89,2-2s-.89-2-2-2-2,.89-2,2,.89,2,2,2Z"/>
      <path class="cls-1" d="M23.68,94.83c1.37,0,2.48-1.11,2.48-2.48s-1.11-2.48-2.48-2.48-2.48,1.11-2.48,2.48,1.11,2.48,2.48,2.48Z"/>
      <path class="cls-1" d="M29.91,83.34c1.28,0,2.31-1.03,2.31-2.31s-1.04-2.31-2.31-2.31-2.31,1.03-2.31,2.31,1.04,2.31,2.31,2.31Z"/>
      <path class="cls-1" d="M37.06,72.69c1.34,0,2.42-1.09,2.42-2.42s-1.09-2.42-2.42-2.42-2.42,1.09-2.42,2.42,1.08,2.42,2.42,2.42Z"/>
      <path class="cls-1" d="M45.08,62.39c1.25,0,2.25-1.01,2.25-2.25s-1.01-2.25-2.25-2.25-2.25,1.01-2.25,2.25,1.01,2.25,2.25,2.25Z"/>
      <path class="cls-1" d="M53.93,52.69c1.09,0,1.97-.88,1.97-1.97s-.88-1.97-1.97-1.97-1.97.88-1.97,1.97.88,1.97,1.97,1.97Z"/>
      <path class="cls-1" d="M63.53,44.04c1.09,0,1.97-.88,1.97-1.97s-.88-1.97-1.97-1.97-1.97.88-1.97,1.97.88,1.97,1.97,1.97Z"/>
      <path class="cls-1" d="M73.83,35.77c.83,0,1.51-.68,1.51-1.51s-.68-1.51-1.51-1.51-1.51.68-1.51,1.51.68,1.51,1.51,1.51Z"/>
      <path class="cls-1" d="M84.74,28.51c.64,0,1.17-.52,1.17-1.17s-.52-1.17-1.17-1.17-1.17.52-1.17,1.17.52,1.17,1.17,1.17Z"/>
      <path class="cls-1" d="M96.19,22.38c.57,0,1.03-.46,1.03-1.03s-.46-1.03-1.03-1.03-1.03.46-1.03,1.03.46,1.03,1.03,1.03Z"/>
      <path class="cls-1" d="M108.1,17.08c.41,0,.74-.33.74-.74s-.33-.74-.74-.74-.74.33-.74.74.33.74.74.74Z"/>
      <path class="cls-1" d="M120.39,12.98c.35,0,.63-.28.63-.63s-.28-.63-.63-.63-.63.28-.63.63.28.63.63.63Z"/>
      <path class="cls-1" d="M132.97,9.94c.3,0,.54-.24.54-.54s-.24-.54-.54-.54-.54.24-.54.54.24.54.54.54Z"/>
      <path class="cls-1" d="M145.75,7.83c.17,0,.31-.14.31-.31s-.14-.31-.31-.31-.31.14-.31.31.14.31.31.31Z"/>
      <path class="cls-1" d="M158.65,6.93c.13,0,.23-.1.23-.23s-.1-.23-.23-.23-.23.1-.23.23.1.23.23.23Z"/>
      <path class="cls-1" d="M171.57,7.09c.06,0,.11-.05.11-.11s-.05-.11-.11-.11-.12.05-.12.11.05.11.12.11Z"/>
      <path class="cls-1" d="M184.42,8.35s.03-.01.03-.03-.01-.03-.03-.03c-.02,0-.03.01-.03.03s.01.03.03.03Z"/>
      <path class="cls-1" d="M15.24,235.69s.03-.01.03-.03-.01-.03-.03-.03-.03.01-.03.03.01.03.03.03Z"/>
      <path class="cls-1" d="M9.83,224.04c.06,0,.12-.05.12-.11s-.05-.11-.12-.11-.11.05-.11.11.05.11.11.11Z"/>
      <path class="cls-1" d="M5.36,212.04c.13,0,.23-.1.23-.23s-.1-.23-.23-.23-.23.1-.23.23.1.23.23.23Z"/>
      <path class="cls-1" d="M1.85,199.71c.19,0,.34-.15.34-.34s-.15-.34-.34-.34-.34.15-.34.34.15.34.34.34Z"/>
      <path class="cls-1" d="M1.85,124.39c1.03,0,1.86-.83,1.86-1.85s-.83-1.85-1.86-1.85-1.85.83-1.85,1.85.83,1.85,1.85,1.85Z"/>
      <circle class="cls-1" cx="5.36" cy="110.1" r="2"/>
      <path class="cls-1" d="M9.83,100.06c1.15,0,2.08-.93,2.08-2.08s-.93-2.08-2.08-2.08-2.08.93-2.08,2.08.93,2.08,2.08,2.08Z"/>
      <path class="cls-1" d="M15.24,88.29c1.13,0,2.05-.92,2.05-2.05s-.92-2.05-2.05-2.05-2.05.92-2.05,2.05.92,2.05,2.05,2.05Z"/>
      <path class="cls-1" d="M21.56,76.87c1.05,0,1.91-.86,1.91-1.91s-.86-1.91-1.91-1.91-1.91.86-1.91,1.91.86,1.91,1.91,1.91Z"/>
      <path class="cls-1" d="M28.74,66.3c1.15,0,2.08-.93,2.08-2.08s-.93-2.08-2.08-2.08-2.08.93-2.08,2.08.93,2.08,2.08,2.08Z"/>
      <path class="cls-1" d="M36.74,56.15c1.15,0,2.08-.93,2.08-2.08s-.93-2.08-2.08-2.08-2.08.93-2.08,2.08.93,2.08,2.08,2.08Z"/>
      <path class="cls-1" d="M45.51,46.44c1.02,0,1.85-.83,1.85-1.85s-.83-1.85-1.85-1.85-1.86.83-1.86,1.85.83,1.85,1.86,1.85Z"/>
      <path class="cls-1" d="M55,37.41c.88,0,1.6-.72,1.6-1.6s-.71-1.6-1.6-1.6-1.6.71-1.6,1.6.71,1.6,1.6,1.6Z"/>
      <path class="cls-1" d="M65.15,29.07c.69,0,1.25-.56,1.25-1.25s-.56-1.25-1.25-1.25-1.26.56-1.26,1.25.56,1.25,1.26,1.25Z"/>
      <path class="cls-1" d="M75.89,21.6c.54,0,.97-.43.97-.97s-.43-.97-.97-.97-.97.43-.97.97.44.97.97.97Z"/>
      <path class="cls-1" d="M87.16,15.23c.5,0,.91-.41.91-.91s-.41-.91-.91-.91-.91.41-.91.91.41.91.91.91Z"/>
      <path class="cls-1" d="M98.9,9.73c.46,0,.83-.37.83-.83s-.37-.83-.83-.83-.83.37-.83.83.37.83.83.83Z"/>
      <path class="cls-1" d="M111.02,5.18c.41,0,.74-.33.74-.74s-.33-.74-.74-.74-.74.33-.74.74.33.74.74.74Z"/>
      <path class="cls-1" d="M123.46,1.56c.35,0,.63-.28.63-.63s-.28-.63-.63-.63-.63.28-.63.63.28.63.63.63Z"/>
      <path class="cls-1" d="M6.82,82.04c1.05,0,1.91-.86,1.91-1.91s-.86-1.91-1.91-1.91-1.91.86-1.91,1.91.86,1.91,1.91,1.91Z"/>
      <path class="cls-1" d="M13.21,70.64c.96,0,1.74-.78,1.74-1.74s-.78-1.74-1.74-1.74-1.74.78-1.74,1.74.78,1.74,1.74,1.74Z"/>
      <path class="cls-1" d="M20.42,59.71c.85,0,1.54-.69,1.54-1.54s-.69-1.54-1.54-1.54-1.54.69-1.54,1.54.69,1.54,1.54,1.54Z"/>
      <path class="cls-1" d="M28.39,49.52c.83,0,1.51-.68,1.51-1.51s-.68-1.51-1.51-1.51-1.51.68-1.51,1.51.68,1.51,1.51,1.51Z"/>
      <path class="cls-1" d="M37.1,39.88c.79,0,1.43-.64,1.43-1.43s-.64-1.43-1.43-1.43-1.43.64-1.43,1.43.64,1.43,1.43,1.43Z"/>
      <path class="cls-1" d="M46.49,30.77c.66,0,1.2-.54,1.2-1.2s-.54-1.2-1.2-1.2-1.2.54-1.2,1.2.54,1.2,1.2,1.2Z"/>
      <path class="cls-1" d="M56.5,22.67c.69,0,1.25-.56,1.25-1.25s-.56-1.26-1.25-1.26-1.26.56-1.26,1.26.56,1.25,1.26,1.25Z"/>
      <path class="cls-1" d="M67.1,15.01c.55,0,1-.45,1-1s-.45-1-1-1-1,.45-1,1,.45,1,1,1Z"/>
      <path class="cls-1" d="M78.21,8.38c.54,0,.97-.43.97-.97s-.43-.97-.97-.97-.97.43-.97.97.44.97.97.97Z"/>
      <path class="cls-1" d="M89.78,2.57c.5,0,.91-.41.91-.91s-.41-.91-.91-.91-.91.41-.91.91.41.91.91.91Z"/>
      <path class="cls-1" d="M4.87,64.58c.96,0,1.74-.78,1.74-1.74s-.78-1.74-1.74-1.74-1.74.78-1.74,1.74.78,1.74,1.74,1.74Z"/>
      <path class="cls-1" d="M12.1,53.67c.85,0,1.54-.69,1.54-1.54s-.69-1.54-1.54-1.54-1.54.69-1.54,1.54.69,1.54,1.54,1.54Z"/>
      <path class="cls-1" d="M20.05,43.26c.72,0,1.31-.59,1.31-1.31s-.59-1.31-1.31-1.31-1.31.59-1.31,1.31.59,1.31,1.31,1.31Z"/>
      <path class="cls-1" d="M28.7,33.6c.69,0,1.26-.56,1.26-1.25s-.56-1.25-1.26-1.25-1.25.56-1.25,1.25.56,1.25,1.25,1.25Z"/>
      <path class="cls-1" d="M37.99,24.5c.63,0,1.14-.51,1.14-1.14s-.51-1.14-1.14-1.14-1.14.51-1.14,1.14.51,1.14,1.14,1.14Z"/>
      <path class="cls-1" d="M47.89,16.03c.54,0,.97-.43.97-.97s-.43-.97-.97-.97-.97.43-.97.97.43.97.97.97Z"/>
      <path class="cls-1" d="M58.35,8.46c.55,0,1-.45,1-1s-.45-1-1-1-1,.45-1,1,.45,1,1,1Z"/>
      <path class="cls-1" d="M3.77,47.39c.72,0,1.31-.59,1.31-1.31s-.59-1.31-1.31-1.31-1.31.59-1.31,1.31.59,1.31,1.31,1.31Z"/>
      <path class="cls-1" d="M11.71,37c.61,0,1.11-.5,1.11-1.11s-.5-1.11-1.11-1.11-1.11.5-1.11,1.11.5,1.11,1.11,1.11Z"/>
      <path class="cls-1" d="M20.3,27.15c.5,0,.91-.41.91-.91s-.41-.91-.91-.91-.91.41-.91.91.41.91.91.91Z"/>
      <path class="cls-1" d="M29.52,18c.46,0,.83-.37.83-.83s-.37-.83-.83-.83-.83.37-.83.83.37.83.83.83Z"/>
      <path class="cls-1" d="M39.31,9.62c.49,0,.88-.4.88-.88s-.39-.88-.88-.88-.88.4-.88.88.4.88.88.88Z"/>
      <path class="cls-1" d="M49.64,1.94c.54,0,.97-.43.97-.97s-.43-.97-.97-.97-.97.43-.97.97.43.97.97.97Z"/>
      <circle class="cls-1" cx="3.37" cy="29.82" r=".91"/>
      <path class="cls-1" d="M11.92,20.87c.41,0,.74-.33.74-.74s-.33-.74-.74-.74-.74.33-.74.74.33.74.74.74Z"/>
      <path class="cls-1" d="M21.06,11.73c.41,0,.74-.33.74-.74s-.33-.74-.74-.74-.74.33-.74.74.33.74.74.74Z"/>
      <path class="cls-1" d="M30.75,3.27c.46,0,.83-.37.83-.83s-.37-.83-.83-.83-.83.37-.83.83.37.83.83.83Z"/>
      <path class="cls-1" d="M3.54,14.78c.41,0,.74-.33.74-.74s-.33-.74-.74-.74-.74.33-.74.74.33.74.74.74Z"/>
      <path class="cls-1" d="M12.61,5.57c.41,0,.74-.33.74-.74s-.33-.74-.74-.74-.74.33-.74.74.33.74.74.74Z"/>
    </g>
  </g>
</svg>